<svg width="493" height="550" viewBox="0 0 493 550" fill="none" xmlns="http://www.w3.org/2000/svg">
<g clip-path="url(#clip0_261_1985)">
<rect x="194" y="221" width="202" height="324.616" rx="101" fill="white" stroke="#0080FF" stroke-width="8"/>
<rect x="194" y="221" width="202" height="324.616" rx="101" stroke="#0080FF" stroke-width="8"/>
<rect x="224.705" y="108" width="133.391" height="133.391" rx="66.6954" fill="white" stroke="#0080FF" stroke-width="8"/>
<rect x="224.705" y="108" width="133.391" height="133.391" rx="66.6954" stroke="#0080FF" stroke-width="8"/>
<rect x="106" y="230.079" width="175" height="324.616" rx="87.5" fill="white" stroke="#0080FF" stroke-width="8"/>
<rect x="106" y="230.079" width="175" height="324.616" rx="87.5" stroke="#0080FF" stroke-width="8"/>
<rect x="126.705" y="136" width="133.391" height="133.391" rx="66.6954" fill="white" stroke="#0080FF" stroke-width="8"/>
<rect x="126.705" y="136" width="133.391" height="133.391" rx="66.6954" stroke="#0080FF" stroke-width="8"/>
<rect x="310" y="416.396" width="131" height="220.075" rx="65.5" fill="white" stroke="#0080FF" stroke-width="8"/>
<rect x="310" y="416.396" width="131" height="220.075" rx="65.5" stroke="#0080FF" stroke-width="8"/>
<rect x="327.971" y="351.461" width="96.0287" height="96.0287" rx="48.0144" fill="white" stroke="#0080FF" stroke-width="8"/>
<rect x="327.971" y="351.461" width="96.0287" height="96.0287" rx="48.0144" stroke="#0080FF" stroke-width="8"/>
<rect x="177" y="385" width="143" height="279" rx="71.5" fill="white" stroke="#0080FF" stroke-width="8"/>
<rect x="177" y="385" width="143" height="279" rx="71.5" stroke="#0080FF" stroke-width="8"/>
<rect x="194" y="309" width="114" height="114" rx="57" fill="white" stroke="#0080FF" stroke-width="8"/>
<rect x="194" y="309" width="114" height="114" rx="57" stroke="#0080FF" stroke-width="8"/>
<rect x="53" y="442.662" width="136" height="220.075" rx="68" fill="white" stroke="#0080FF" stroke-width="8"/>
<rect x="53" y="442.662" width="136" height="220.075" rx="68" stroke="#0080FF" stroke-width="8"/>
<rect x="75.5098" y="384.266" width="88.9518" height="88.9518" rx="44.4759" fill="white" stroke="#0080FF" stroke-width="8"/>
<rect x="75.5098" y="384.266" width="88.9518" height="88.9518" rx="44.4759" stroke="#0080FF" stroke-width="8"/>
<mask id="path-21-inside-1_261_1985" fill="white">
<path d="M0 542H493V791H0V542Z"/>
</mask>
<path d="M0 542H493V791H0V542Z" fill="white"/>
<path d="M0 550H493V534H0V550Z" fill="#0080FF" mask="url(#path-21-inside-1_261_1985)"/>
</g>
<defs>
<clipPath id="clip0_261_1985">
<rect width="493" height="550" fill="white"/>
</clipPath>
</defs>
</svg>
