<svg width="32" height="32" viewBox="0 0 32 32" fill="none" xmlns="http://www.w3.org/2000/svg">
<path d="M5.29213 8.34255L5.80344 9.00695L5.29213 8.34255L2.80502 10.2566C2.00321 10.8737 1.66318 11.9202 1.94916 12.8907L2.83621 15.9011C2.85524 15.9657 2.85524 16.0343 2.83621 16.0989L1.94916 19.1093C1.66318 20.0798 2.0032 21.1263 2.80502 21.7434L5.29213 23.6574C5.34548 23.6985 5.38586 23.7541 5.40842 23.8175L6.46024 26.7744C6.79933 27.7276 7.68953 28.3744 8.70092 28.4023L11.8381 28.4889C11.9054 28.4908 11.9707 28.512 12.0263 28.5501L14.6152 30.324C15.4498 30.8959 16.5502 30.8959 17.3848 30.324L19.9737 28.5501C20.0293 28.512 20.0946 28.4908 20.1619 28.4889L23.2991 28.4023C24.3105 28.3744 25.2007 27.7276 25.5398 26.7744L26.5916 23.8175C26.6141 23.7541 26.6545 23.6985 26.7079 23.6574L29.195 21.7434C29.9968 21.1263 30.3368 20.0798 30.0508 19.1093L29.1638 16.0989C29.1448 16.0343 29.1448 15.9657 29.1638 15.9011L30.0508 12.8907C30.3368 11.9202 29.9968 10.8737 29.195 10.2566L26.7079 8.34256C26.6545 8.30149 26.6141 8.24592 26.5916 8.18249L25.5398 5.22564C25.2007 4.27238 24.3105 3.62561 23.2991 3.59769L20.1619 3.51107C20.0946 3.50921 20.0293 3.48798 19.9737 3.44993L17.3848 1.67603C16.5502 1.10414 15.4498 1.10414 14.6152 1.67603L12.0263 3.44992C11.9707 3.48798 11.9054 3.50921 11.8381 3.51107L8.70092 3.59769C7.68953 3.62561 6.79933 4.27238 6.46024 5.22564L5.40842 8.18249C5.38586 8.24592 5.34548 8.30149 5.29213 8.34255Z" fill="url(#paint0_radial_473_1473)" stroke="#CCE8FF" stroke-width="2.1"/>
<path d="M15.5292 18.9786C15.2472 19.2652 14.7851 19.2652 14.5032 18.9786L11.5811 16.0079C11.3139 15.7363 11.3139 15.3005 11.5811 15.0289C11.8546 14.7508 12.3029 14.7508 12.5764 15.0289L15.0162 17.5092L20.8228 11.606C21.0963 11.328 21.5446 11.328 21.8181 11.606C22.0853 11.8777 22.0853 12.3134 21.8181 12.585L15.5292 18.9786Z" fill="white"/>
<defs>
<radialGradient id="paint0_radial_473_1473" cx="0" cy="0" r="1" gradientUnits="userSpaceOnUse" gradientTransform="translate(16 16) rotate(90) scale(14)">
<stop stop-color="#007FFF"/>
<stop offset="1" stop-color="#3E9EFF"/>
</radialGradient>
</defs>
</svg>
