<svg width="20" height="20" viewBox="0 0 20 20" fill="none" xmlns="http://www.w3.org/2000/svg">
<path d="M17.6195 10.9523V13.8095C17.6195 15.0476 14.6347 16.6666 10.9528 16.6666C7.27089 16.6666 4.28613 15.0476 4.28613 13.8095V11.4285" stroke="#0080FF" stroke-linecap="round" stroke-linejoin="round"/>
<path d="M4.56543 11.6752C5.38924 12.7686 7.93686 13.7943 10.9521 13.7943C14.634 13.7943 17.6188 12.2648 17.6188 10.9505C17.6188 10.2124 16.6788 9.4038 15.2035 8.83618" stroke="#0080FF" stroke-linecap="round" stroke-linejoin="round"/>
<path d="M14.762 6.19043V9.04757C14.762 10.2857 11.7773 11.9047 8.09538 11.9047C4.41347 11.9047 1.42871 10.2857 1.42871 9.04757V6.19043" stroke="#0080FF" stroke-linecap="round" stroke-linejoin="round"/>
<path fill-rule="evenodd" clip-rule="evenodd" d="M8.09538 9.03236C11.7773 9.03236 14.762 7.50284 14.762 6.18855C14.762 4.87331 11.7773 3.33331 8.09538 3.33331C4.41347 3.33331 1.42871 4.87331 1.42871 6.18855C1.42871 7.50284 4.41347 9.03236 8.09538 9.03236Z" stroke="#0080FF" stroke-linecap="round" stroke-linejoin="round"/>
</svg>
