<svg width="48" height="48" viewBox="0 0 48 48" fill="none" xmlns="http://www.w3.org/2000/svg">
<path d="M21.8117 8.79539C22.5634 6.76395 25.4366 6.76395 26.1883 8.79539L29.0124 16.4274C29.4513 17.6135 30.3865 18.5487 31.5726 18.9876L39.2046 21.8117C41.2361 22.5634 41.2361 25.4366 39.2046 26.1883L31.5726 29.0124C30.3865 29.4513 29.4513 30.3865 29.0124 31.5726L26.1883 39.2046C25.4366 41.2361 22.5634 41.2361 21.8117 39.2046L18.9876 31.5726C18.5487 30.3865 17.6135 29.4513 16.4274 29.0124L8.79539 26.1883C6.76395 25.4366 6.76395 22.5634 8.79539 21.8117L16.4274 18.9876C17.6135 18.5487 18.5487 17.6135 18.9876 16.4274L21.8117 8.79539Z" stroke="#0080FF" stroke-width="2"/>
</svg>
