<svg width="48" height="48" viewBox="0 0 48 48" fill="none" xmlns="http://www.w3.org/2000/svg">
<path d="M42.2857 26.2856V33.1428C42.2857 36.1142 35.1223 39.9999 26.2857 39.9999C17.4491 39.9999 10.2857 36.1142 10.2857 33.1428V27.4285" stroke="#0080FF" stroke-width="2" stroke-linecap="round" stroke-linejoin="round"/>
<path d="M10.9577 28.0207C12.9348 30.6447 19.0491 33.1065 26.2857 33.1065C35.1223 33.1065 42.2857 29.4356 42.2857 26.2813C42.2857 24.5099 40.0297 22.5693 36.4891 21.207" stroke="#0080FF" stroke-width="2" stroke-linecap="round" stroke-linejoin="round"/>
<path d="M35.4286 14.8569V21.7141C35.4286 24.6855 28.2651 28.5712 19.4286 28.5712C10.592 28.5712 3.42856 24.6855 3.42856 21.7141V14.8569" stroke="#0080FF" stroke-width="2" stroke-linecap="round" stroke-linejoin="round"/>
<path fill-rule="evenodd" clip-rule="evenodd" d="M19.4286 21.6777C28.2651 21.6777 35.4286 18.0069 35.4286 14.8526C35.4286 11.696 28.2651 8 19.4286 8C10.592 8 3.42856 11.696 3.42856 14.8526C3.42856 18.0069 10.592 21.6777 19.4286 21.6777Z" stroke="#0080FF" stroke-width="2" stroke-linecap="round" stroke-linejoin="round"/>
</svg>
