<svg width="36" height="36" viewBox="0 0 36 36" fill="none" xmlns="http://www.w3.org/2000/svg">
<g filter="url(#filter0_biii_888_4004)">
<rect x="6" y="4" width="24" height="28" rx="2" fill="url(#paint0_linear_888_4004)" fill-opacity="0.3"/>
</g>
<path d="M17.8294 13.1839C17.9528 12.9387 18.3329 12.9387 18.4563 13.1839L19.7176 15.691C19.7679 15.791 19.8712 15.8598 19.9904 15.8727L22.9807 16.1978C23.2733 16.2296 23.3907 16.5611 23.1745 16.7445L20.9636 18.619C20.8755 18.6937 20.836 18.8051 20.8594 18.913L21.4463 21.621C21.5037 21.8859 21.1961 22.0908 20.9391 21.9589L18.3115 20.6103C18.2067 20.5566 18.079 20.5566 17.9743 20.6103L15.3466 21.9589C15.0896 22.0908 14.782 21.8859 14.8394 21.621L15.4263 18.913C15.4497 18.8051 15.4102 18.6937 15.3221 18.619L13.1112 16.7445C12.895 16.5611 13.0125 16.2296 13.305 16.1978L16.2953 15.8727C16.4145 15.8598 16.5178 15.791 16.5681 15.691L17.8294 13.1839Z" fill="url(#paint1_linear_888_4004)"/>
<defs>
<filter id="filter0_biii_888_4004" x="-31.1903" y="-33.1903" width="98.3806" height="102.381" filterUnits="userSpaceOnUse" color-interpolation-filters="sRGB">
<feFlood flood-opacity="0" result="BackgroundImageFix"/>
<feGaussianBlur in="BackgroundImageFix" stdDeviation="18.5951"/>
<feComposite in2="SourceAlpha" operator="in" result="effect1_backgroundBlur_888_4004"/>
<feBlend mode="normal" in="SourceGraphic" in2="effect1_backgroundBlur_888_4004" result="shape"/>
<feColorMatrix in="SourceAlpha" type="matrix" values="0 0 0 0 0 0 0 0 0 0 0 0 0 0 0 0 0 0 127 0" result="hardAlpha"/>
<feOffset dy="-2.90549"/>
<feGaussianBlur stdDeviation="2.03384"/>
<feComposite in2="hardAlpha" operator="arithmetic" k2="-1" k3="1"/>
<feColorMatrix type="matrix" values="0 0 0 0 1 0 0 0 0 1 0 0 0 0 1 0 0 0 1 0"/>
<feBlend mode="normal" in2="shape" result="effect2_innerShadow_888_4004"/>
<feColorMatrix in="SourceAlpha" type="matrix" values="0 0 0 0 0 0 0 0 0 0 0 0 0 0 0 0 0 0 127 0" result="hardAlpha"/>
<feOffset dy="11.622"/>
<feGaussianBlur stdDeviation="11.0409"/>
<feComposite in2="hardAlpha" operator="arithmetic" k2="-1" k3="1"/>
<feColorMatrix type="matrix" values="0 0 0 0 1 0 0 0 0 1 0 0 0 0 1 0 0 0 0.35 0"/>
<feBlend mode="normal" in2="effect2_innerShadow_888_4004" result="effect3_innerShadow_888_4004"/>
<feColorMatrix in="SourceAlpha" type="matrix" values="0 0 0 0 0 0 0 0 0 0 0 0 0 0 0 0 0 0 127 0" result="hardAlpha"/>
<feOffset dy="2.90549"/>
<feGaussianBlur stdDeviation="1.45275"/>
<feComposite in2="hardAlpha" operator="arithmetic" k2="-1" k3="1"/>
<feColorMatrix type="matrix" values="0 0 0 0 1 0 0 0 0 1 0 0 0 0 1 0 0 0 1 0"/>
<feBlend mode="normal" in2="effect3_innerShadow_888_4004" result="effect4_innerShadow_888_4004"/>
</filter>
<linearGradient id="paint0_linear_888_4004" x1="18" y1="4" x2="18" y2="34.033" gradientUnits="userSpaceOnUse">
<stop stop-color="white"/>
<stop offset="1" stop-color="white" stop-opacity="0"/>
</linearGradient>
<linearGradient id="paint1_linear_888_4004" x1="18.1429" y1="16.0729" x2="18.1429" y2="22" gradientUnits="userSpaceOnUse">
<stop stop-color="#3284FF"/>
<stop offset="1" stop-color="#75B5FF"/>
</linearGradient>
</defs>
</svg>
