<svg width="21" height="20" viewBox="0 0 21 20" fill="none" xmlns="http://www.w3.org/2000/svg">
<path fill-rule="evenodd" clip-rule="evenodd" d="M16.8148 3.69167C17.0207 3.60499 17.2461 3.5751 17.4675 3.6051C17.6889 3.6351 17.8983 3.72389 18.0737 3.86224C18.2491 4.00058 18.3843 4.18343 18.4651 4.39174C18.5459 4.60004 18.5694 4.8262 18.5331 5.04667L16.6431 16.5108C16.4598 17.6167 15.2465 18.2508 14.2323 17.7C13.384 17.2392 12.124 16.5292 10.9906 15.7883C10.424 15.4175 8.68813 14.23 8.90146 13.385C9.08479 12.6625 12.0015 9.9475 13.6681 8.33333C14.3223 7.69917 14.024 7.33333 13.2515 7.91667C11.3323 9.365 8.25313 11.5675 7.23479 12.1875C6.33646 12.7342 5.86813 12.8275 5.30813 12.7342C4.28646 12.5642 3.33896 12.3008 2.56563 11.98C1.52063 11.5467 1.57146 10.11 2.56479 9.69167L16.8148 3.69167Z" fill="#7992B2"/>
</svg>
