<svg width="21" height="20" viewBox="0 0 21 20" fill="none" xmlns="http://www.w3.org/2000/svg">
<path d="M17.609 6.09332C17.7153 5.74024 17.609 5.48131 17.1063 5.48131H15.4411C15.0174 5.48131 14.8238 5.70531 14.7175 5.95133C14.7175 5.95133 13.8708 8.01591 12.6711 9.35459C12.2839 9.74412 12.1069 9.86713 11.8959 9.86713C11.7903 9.86713 11.6369 9.74412 11.6369 9.39104V6.09332C11.6369 5.66962 11.5147 5.48131 11.1616 5.48131H8.54498C8.28074 5.48131 8.12128 5.67722 8.12128 5.86401C8.12128 6.26493 8.72115 6.35756 8.78265 7.48743V9.93851C8.78265 10.4753 8.68622 10.5733 8.47361 10.5733C7.90944 10.5733 6.53659 8.50112 5.72184 6.12901C5.56314 5.6681 5.40293 5.48207 4.97771 5.48207H3.31329C2.83719 5.48207 2.74228 5.70607 2.74228 5.95209C2.74228 6.39401 3.30645 8.58085 5.37028 11.4731C6.74616 13.4481 8.68318 14.5187 10.4478 14.5187C11.5056 14.5187 11.6362 14.281 11.6362 13.871V12.3782C11.6362 11.9029 11.7372 11.8072 12.072 11.8072C12.318 11.8072 12.7417 11.9317 13.7296 12.8831C14.858 14.0115 15.0447 14.518 15.6788 14.518H17.3432C17.8185 14.518 18.0562 14.2803 17.9195 13.811C17.7699 13.344 17.2308 12.6645 16.5155 11.8603C16.1268 11.4017 15.5459 10.9082 15.369 10.6614C15.1222 10.3432 15.1936 10.2027 15.369 9.92028C15.3697 9.92104 17.3979 7.06449 17.609 6.09332Z" fill="#7992B2"/>
</svg>
