<svg width="940" height="556" viewBox="0 0 940 556" fill="none" xmlns="http://www.w3.org/2000/svg">
<rect y="315" width="300" height="241" rx="20" fill="#E3EAF7"/>
<path d="M65.132 373.32C63.8093 373.32 62.6253 373.096 61.58 372.648C60.5347 372.179 59.628 371.539 58.86 370.728C58.1133 369.917 57.5373 369 57.132 367.976C56.7267 366.931 56.524 365.821 56.524 364.648C56.524 363.475 56.7267 362.365 57.132 361.32C57.5373 360.275 58.1133 359.357 58.86 358.568C59.628 357.757 60.5347 357.128 61.58 356.68C62.6467 356.211 63.8307 355.976 65.132 355.976C66.4333 355.976 67.6067 356.211 68.652 356.68C69.7187 357.128 70.6253 357.757 71.372 358.568C72.14 359.357 72.7267 360.275 73.132 361.32C73.5373 362.365 73.74 363.475 73.74 364.648C73.74 365.821 73.5373 366.931 73.132 367.976C72.7267 369 72.14 369.917 71.372 370.728C70.6253 371.539 69.7187 372.179 68.652 372.648C67.6067 373.096 66.4333 373.32 65.132 373.32ZM60.14 364.68C60.14 365.747 60.364 366.707 60.812 367.56C61.26 368.413 61.8573 369.085 62.604 369.576C63.3507 370.067 64.1933 370.312 65.132 370.312C66.0493 370.312 66.8813 370.067 67.628 369.576C68.396 369.064 69.004 368.381 69.452 367.528C69.9 366.653 70.124 365.693 70.124 364.648C70.124 363.581 69.9 362.621 69.452 361.768C69.004 360.915 68.396 360.243 67.628 359.752C66.8813 359.24 66.0493 358.984 65.132 358.984C64.1933 358.984 63.3507 359.24 62.604 359.752C61.8573 360.264 61.26 360.947 60.812 361.8C60.364 362.632 60.14 363.592 60.14 364.68ZM80.83 373V359.368H75.294V356.264H89.918V359.368H84.35V373H80.83Z" fill="#070E18"/>
<path d="M111.076 373.32C109.433 373.32 107.961 372.957 106.66 372.232C105.38 371.485 104.388 370.472 103.684 369.192L105.796 367.176C106.393 368.093 107.161 368.829 108.1 369.384C109.039 369.917 110.041 370.184 111.108 370.184C111.983 370.184 112.761 370.003 113.444 369.64C114.127 369.256 114.66 368.733 115.044 368.072C115.449 367.411 115.652 366.643 115.652 365.768C115.652 364.915 115.46 364.168 115.076 363.528C114.713 362.867 114.201 362.355 113.54 361.992C112.9 361.629 112.175 361.448 111.364 361.448C110.553 361.448 109.785 361.629 109.06 361.992C108.356 362.355 107.791 362.867 107.364 363.528H104.228L106.82 350.28H117.924V353.512H109.38L108.228 359.688C108.612 359.304 109.103 358.995 109.7 358.76C110.319 358.525 111.023 358.408 111.812 358.408C113.241 358.408 114.511 358.717 115.62 359.336C116.751 359.955 117.636 360.808 118.276 361.896C118.937 362.984 119.268 364.243 119.268 365.672C119.268 367.187 118.905 368.52 118.18 369.672C117.455 370.803 116.473 371.699 115.236 372.36C114.02 373 112.633 373.32 111.076 373.32ZM131.667 373.32C130.067 373.277 128.659 372.904 127.443 372.2C126.227 371.496 125.214 370.579 124.403 369.448C123.593 368.296 122.974 367.059 122.547 365.736C122.142 364.392 121.939 363.08 121.939 361.8C121.939 360.435 122.163 359.069 122.611 357.704C123.059 356.339 123.71 355.101 124.563 353.992C125.417 352.861 126.441 351.965 127.635 351.304C128.83 350.621 130.174 350.28 131.667 350.28C133.267 350.28 134.665 350.643 135.859 351.368C137.075 352.093 138.089 353.032 138.899 354.184C139.71 355.336 140.318 356.584 140.723 357.928C141.15 359.272 141.363 360.563 141.363 361.8C141.363 363.187 141.139 364.563 140.691 365.928C140.243 367.272 139.593 368.499 138.739 369.608C137.886 370.717 136.862 371.613 135.667 372.296C134.494 372.957 133.161 373.299 131.667 373.32ZM125.587 361.8C125.63 362.781 125.769 363.763 126.003 364.744C126.259 365.704 126.643 366.589 127.155 367.4C127.667 368.211 128.297 368.861 129.043 369.352C129.79 369.843 130.665 370.088 131.667 370.088C132.713 370.088 133.609 369.832 134.355 369.32C135.123 368.787 135.753 368.104 136.243 367.272C136.734 366.419 137.097 365.512 137.331 364.552C137.587 363.592 137.715 362.675 137.715 361.8C137.715 360.819 137.577 359.848 137.299 358.888C137.043 357.907 136.659 357.011 136.147 356.2C135.635 355.389 135.006 354.739 134.259 354.248C133.513 353.757 132.649 353.512 131.667 353.512C130.622 353.512 129.715 353.779 128.947 354.312C128.179 354.824 127.55 355.507 127.059 356.36C126.569 357.192 126.195 358.088 125.939 359.048C125.705 360.008 125.587 360.925 125.587 361.8ZM161.824 373.32C160.224 373.277 158.816 372.904 157.6 372.2C156.384 371.496 155.37 370.579 154.56 369.448C153.749 368.296 153.13 367.059 152.704 365.736C152.298 364.392 152.096 363.08 152.096 361.8C152.096 360.435 152.32 359.069 152.768 357.704C153.216 356.339 153.866 355.101 154.72 353.992C155.573 352.861 156.597 351.965 157.792 351.304C158.986 350.621 160.33 350.28 161.824 350.28C163.424 350.28 164.821 350.643 166.016 351.368C167.232 352.093 168.245 353.032 169.056 354.184C169.866 355.336 170.474 356.584 170.88 357.928C171.306 359.272 171.52 360.563 171.52 361.8C171.52 363.187 171.296 364.563 170.848 365.928C170.4 367.272 169.749 368.499 168.896 369.608C168.042 370.717 167.018 371.613 165.824 372.296C164.65 372.957 163.317 373.299 161.824 373.32ZM155.744 361.8C155.786 362.781 155.925 363.763 156.16 364.744C156.416 365.704 156.8 366.589 157.312 367.4C157.824 368.211 158.453 368.861 159.2 369.352C159.946 369.843 160.821 370.088 161.824 370.088C162.869 370.088 163.765 369.832 164.512 369.32C165.28 368.787 165.909 368.104 166.4 367.272C166.89 366.419 167.253 365.512 167.488 364.552C167.744 363.592 167.872 362.675 167.872 361.8C167.872 360.819 167.733 359.848 167.456 358.888C167.2 357.907 166.816 357.011 166.304 356.2C165.792 355.389 165.162 354.739 164.416 354.248C163.669 353.757 162.805 353.512 161.824 353.512C160.778 353.512 159.872 353.779 159.104 354.312C158.336 354.824 157.706 355.507 157.216 356.36C156.725 357.192 156.352 358.088 156.096 359.048C155.861 360.008 155.744 360.925 155.744 361.8ZM184.074 373.32C182.474 373.277 181.066 372.904 179.85 372.2C178.634 371.496 177.62 370.579 176.81 369.448C175.999 368.296 175.38 367.059 174.954 365.736C174.548 364.392 174.346 363.08 174.346 361.8C174.346 360.435 174.57 359.069 175.018 357.704C175.466 356.339 176.116 355.101 176.97 353.992C177.823 352.861 178.847 351.965 180.042 351.304C181.236 350.621 182.58 350.28 184.074 350.28C185.674 350.28 187.071 350.643 188.266 351.368C189.482 352.093 190.495 353.032 191.306 354.184C192.116 355.336 192.724 356.584 193.13 357.928C193.556 359.272 193.77 360.563 193.77 361.8C193.77 363.187 193.546 364.563 193.098 365.928C192.65 367.272 191.999 368.499 191.146 369.608C190.292 370.717 189.268 371.613 188.074 372.296C186.9 372.957 185.567 373.299 184.074 373.32ZM177.994 361.8C178.036 362.781 178.175 363.763 178.41 364.744C178.666 365.704 179.05 366.589 179.562 367.4C180.074 368.211 180.703 368.861 181.45 369.352C182.196 369.843 183.071 370.088 184.074 370.088C185.119 370.088 186.015 369.832 186.762 369.32C187.53 368.787 188.159 368.104 188.65 367.272C189.14 366.419 189.503 365.512 189.738 364.552C189.994 363.592 190.122 362.675 190.122 361.8C190.122 360.819 189.983 359.848 189.706 358.888C189.45 357.907 189.066 357.011 188.554 356.2C188.042 355.389 187.412 354.739 186.666 354.248C185.919 353.757 185.055 353.512 184.074 353.512C183.028 353.512 182.122 353.779 181.354 354.312C180.586 354.824 179.956 355.507 179.466 356.36C178.975 357.192 178.602 358.088 178.346 359.048C178.111 360.008 177.994 360.925 177.994 361.8ZM206.324 373.32C204.724 373.277 203.316 372.904 202.1 372.2C200.884 371.496 199.87 370.579 199.06 369.448C198.249 368.296 197.63 367.059 197.204 365.736C196.798 364.392 196.596 363.08 196.596 361.8C196.596 360.435 196.82 359.069 197.268 357.704C197.716 356.339 198.366 355.101 199.22 353.992C200.073 352.861 201.097 351.965 202.292 351.304C203.486 350.621 204.83 350.28 206.324 350.28C207.924 350.28 209.321 350.643 210.516 351.368C211.732 352.093 212.745 353.032 213.556 354.184C214.366 355.336 214.974 356.584 215.38 357.928C215.806 359.272 216.02 360.563 216.02 361.8C216.02 363.187 215.796 364.563 215.348 365.928C214.9 367.272 214.249 368.499 213.396 369.608C212.542 370.717 211.518 371.613 210.324 372.296C209.15 372.957 207.817 373.299 206.324 373.32ZM200.244 361.8C200.286 362.781 200.425 363.763 200.66 364.744C200.916 365.704 201.3 366.589 201.812 367.4C202.324 368.211 202.953 368.861 203.7 369.352C204.446 369.843 205.321 370.088 206.324 370.088C207.369 370.088 208.265 369.832 209.012 369.32C209.78 368.787 210.409 368.104 210.9 367.272C211.39 366.419 211.753 365.512 211.988 364.552C212.244 363.592 212.372 362.675 212.372 361.8C212.372 360.819 212.233 359.848 211.956 358.888C211.7 357.907 211.316 357.011 210.804 356.2C210.292 355.389 209.662 354.739 208.916 354.248C208.169 353.757 207.305 353.512 206.324 353.512C205.278 353.512 204.372 353.779 203.604 354.312C202.836 354.824 202.206 355.507 201.716 356.36C201.225 357.192 200.852 358.088 200.596 359.048C200.361 360.008 200.244 360.925 200.244 361.8ZM225.344 365.096V361.928H234.464V365.096H225.344ZM225.344 369.288V367.112H236.128V369.288H225.344ZM227.872 373V350.28H235.968C237.056 350.28 238.026 350.493 238.88 350.92C239.754 351.347 240.49 351.912 241.088 352.616C241.706 353.32 242.176 354.109 242.496 354.984C242.837 355.859 243.008 356.755 243.008 357.672C243.008 358.931 242.73 360.136 242.176 361.288C241.642 362.419 240.864 363.336 239.84 364.04C238.837 364.744 237.6 365.096 236.128 365.096H231.488V373H227.872ZM231.488 361.928H235.936C236.768 361.928 237.429 361.747 237.92 361.384C238.432 361 238.794 360.488 239.008 359.848C239.242 359.208 239.36 358.483 239.36 357.672C239.36 356.84 239.221 356.104 238.944 355.464C238.688 354.824 238.282 354.333 237.728 353.992C237.194 353.629 236.522 353.448 235.712 353.448H231.488V361.928Z" fill="#070E18"/>
<path d="M98.656 491.24C96.56 491.24 94.968 490.608 93.88 489.344C92.792 488.08 92.248 486.272 92.248 483.92C92.248 482.384 92.376 481.088 92.632 480.032C92.904 478.96 93.296 478.08 93.808 477.392C94.336 476.704 94.984 476.144 95.752 475.712C96.536 475.264 97.44 474.904 98.464 474.632L103.816 473.144L103.912 475.352L98.656 476.84C97.824 477.096 97.112 477.432 96.52 477.848C95.944 478.264 95.488 478.808 95.152 479.48C94.816 480.136 94.592 480.968 94.48 481.976C94.928 481.16 95.568 480.52 96.4 480.056C97.232 479.592 98.216 479.36 99.352 479.36C100.52 479.36 101.528 479.608 102.376 480.104C103.224 480.584 103.88 481.256 104.344 482.12C104.808 482.984 105.04 483.976 105.04 485.096C105.04 486.312 104.792 487.384 104.296 488.312C103.816 489.224 103.096 489.944 102.136 490.472C101.192 490.984 100.032 491.24 98.656 491.24ZM98.656 488.984C99.824 488.984 100.728 488.64 101.368 487.952C102.024 487.264 102.352 486.352 102.352 485.216C102.352 484.128 102.024 483.24 101.368 482.552C100.728 481.848 99.824 481.496 98.656 481.496C97.968 481.496 97.344 481.648 96.784 481.952C96.224 482.24 95.784 482.664 95.464 483.224C95.144 483.768 94.984 484.432 94.984 485.216C94.984 485.952 95.128 486.608 95.416 487.184C95.704 487.744 96.12 488.184 96.664 488.504C97.208 488.824 97.872 488.984 98.656 488.984ZM113.108 491.24C112.132 491.24 111.244 491.072 110.444 490.736C109.66 490.384 108.98 489.912 108.404 489.32C107.828 488.712 107.38 488.024 107.06 487.256C106.756 486.472 106.604 485.64 106.604 484.76C106.604 483.576 106.876 482.496 107.42 481.52C107.964 480.528 108.724 479.736 109.7 479.144C110.676 478.536 111.82 478.232 113.132 478.232C114.444 478.232 115.572 478.536 116.516 479.144C117.476 479.736 118.22 480.52 118.748 481.496C119.276 482.472 119.54 483.52 119.54 484.64C119.54 484.832 119.532 485.016 119.516 485.192C119.5 485.352 119.484 485.488 119.468 485.6H109.412C109.46 486.336 109.66 486.984 110.012 487.544C110.38 488.088 110.844 488.52 111.404 488.84C111.964 489.144 112.564 489.296 113.204 489.296C113.908 489.296 114.572 489.12 115.196 488.768C115.836 488.416 116.268 487.952 116.492 487.376L118.748 488.024C118.476 488.632 118.06 489.184 117.5 489.68C116.956 490.16 116.308 490.544 115.556 490.832C114.804 491.104 113.988 491.24 113.108 491.24ZM109.34 483.848H116.924C116.876 483.128 116.668 482.496 116.3 481.952C115.948 481.392 115.492 480.96 114.932 480.656C114.388 480.336 113.78 480.176 113.108 480.176C112.452 480.176 111.844 480.336 111.284 480.656C110.74 480.96 110.292 481.392 109.94 481.952C109.588 482.496 109.388 483.128 109.34 483.848ZM125.893 491.192C124.613 491.192 123.533 490.96 122.653 490.496C121.789 490.016 121.125 489.36 120.661 488.528L122.797 487.568C123.069 488.032 123.453 488.4 123.949 488.672C124.445 488.928 125.045 489.056 125.749 489.056C126.597 489.056 127.253 488.88 127.717 488.528C128.181 488.176 128.413 487.712 128.413 487.136C128.413 486.608 128.221 486.184 127.837 485.864C127.453 485.528 126.909 485.352 126.205 485.336H124.909V483.656H126.253C126.573 483.656 126.853 483.584 127.093 483.44C127.333 483.296 127.517 483.104 127.645 482.864C127.789 482.608 127.861 482.32 127.861 482C127.861 481.52 127.677 481.136 127.309 480.848C126.957 480.544 126.421 480.392 125.701 480.392C125.077 480.392 124.565 480.512 124.165 480.752C123.765 480.976 123.437 481.312 123.181 481.76L121.189 480.704C121.605 479.936 122.213 479.336 123.013 478.904C123.813 478.472 124.749 478.256 125.821 478.256C126.669 478.256 127.421 478.392 128.077 478.664C128.749 478.92 129.269 479.304 129.637 479.816C130.021 480.312 130.213 480.928 130.213 481.664C130.213 482.24 130.077 482.784 129.805 483.296C129.533 483.792 129.109 484.16 128.533 484.4C129.301 484.624 129.877 485.016 130.261 485.576C130.661 486.12 130.861 486.768 130.861 487.52C130.861 488.288 130.645 488.952 130.213 489.512C129.797 490.056 129.213 490.472 128.461 490.76C127.709 491.048 126.853 491.192 125.893 491.192ZM144.865 491.24C143.873 491.24 142.985 491.072 142.201 490.736C141.417 490.384 140.737 489.904 140.161 489.296C139.601 488.688 139.169 488 138.865 487.232C138.561 486.448 138.409 485.616 138.409 484.736C138.409 483.856 138.561 483.024 138.865 482.24C139.169 481.456 139.601 480.768 140.161 480.176C140.737 479.568 141.417 479.096 142.201 478.76C143.001 478.408 143.889 478.232 144.865 478.232C145.841 478.232 146.721 478.408 147.505 478.76C148.305 479.096 148.985 479.568 149.545 480.176C150.121 480.768 150.561 481.456 150.865 482.24C151.169 483.024 151.321 483.856 151.321 484.736C151.321 485.616 151.169 486.448 150.865 487.232C150.561 488 150.121 488.688 149.545 489.296C148.985 489.904 148.305 490.384 147.505 490.736C146.721 491.072 145.841 491.24 144.865 491.24ZM141.121 484.76C141.121 485.56 141.289 486.28 141.625 486.92C141.961 487.56 142.409 488.064 142.969 488.432C143.529 488.8 144.161 488.984 144.865 488.984C145.553 488.984 146.177 488.8 146.737 488.432C147.313 488.048 147.769 487.536 148.105 486.896C148.441 486.24 148.609 485.52 148.609 484.736C148.609 483.936 148.441 483.216 148.105 482.576C147.769 481.936 147.313 481.432 146.737 481.064C146.177 480.68 145.553 480.488 144.865 480.488C144.161 480.488 143.529 480.68 142.969 481.064C142.409 481.448 141.961 481.96 141.625 482.6C141.289 483.224 141.121 483.944 141.121 484.76ZM153.662 491V478.448H164.462V491H161.822V480.776H156.302V491H153.662ZM167.654 491V478.448H170.294V482.576H172.67C174.158 482.576 175.294 482.952 176.078 483.704C176.862 484.456 177.254 485.448 177.254 486.68C177.254 487.512 177.086 488.256 176.75 488.912C176.414 489.568 175.918 490.08 175.262 490.448C174.622 490.816 173.822 491 172.862 491H167.654ZM170.294 488.96H172.454C172.982 488.96 173.406 488.864 173.726 488.672C174.046 488.464 174.278 488.192 174.422 487.856C174.582 487.504 174.662 487.128 174.662 486.728C174.662 486.328 174.59 485.968 174.446 485.648C174.302 485.312 174.062 485.048 173.726 484.856C173.406 484.648 172.974 484.544 172.43 484.544H170.294V488.96ZM179.318 491V478.472H181.958V491H179.318ZM188.115 491V480.776H183.963V478.448H194.931V480.776H190.755V491H188.115ZM195.969 487.328C195.969 486.528 196.193 485.832 196.641 485.24C197.105 484.632 197.737 484.168 198.537 483.848C199.337 483.512 200.265 483.344 201.321 483.344C201.881 483.344 202.449 483.384 203.025 483.464C203.617 483.544 204.137 483.672 204.585 483.848V483.056C204.585 482.176 204.321 481.488 203.793 480.992C203.265 480.496 202.505 480.248 201.513 480.248C200.809 480.248 200.145 480.376 199.521 480.632C198.897 480.872 198.233 481.216 197.529 481.664L196.641 479.888C197.473 479.328 198.305 478.912 199.137 478.64C199.985 478.368 200.873 478.232 201.801 478.232C203.481 478.232 204.801 478.68 205.761 479.576C206.737 480.456 207.225 481.712 207.225 483.344V488.024C207.225 488.328 207.273 488.544 207.369 488.672C207.481 488.8 207.665 488.872 207.921 488.888V491C207.681 491.048 207.465 491.08 207.273 491.096C207.081 491.112 206.921 491.12 206.793 491.12C206.233 491.12 205.809 490.984 205.521 490.712C205.233 490.44 205.065 490.12 205.017 489.752L204.945 489.032C204.401 489.736 203.705 490.28 202.857 490.664C202.009 491.048 201.153 491.24 200.289 491.24C199.457 491.24 198.713 491.072 198.057 490.736C197.401 490.384 196.889 489.912 196.521 489.32C196.153 488.728 195.969 488.064 195.969 487.328ZM203.961 488.096C204.153 487.888 204.305 487.68 204.417 487.472C204.529 487.264 204.585 487.08 204.585 486.92V485.48C204.137 485.304 203.665 485.176 203.169 485.096C202.673 485 202.185 484.952 201.705 484.952C200.745 484.952 199.961 485.144 199.353 485.528C198.761 485.912 198.465 486.44 198.465 487.112C198.465 487.48 198.561 487.832 198.753 488.168C198.961 488.504 199.249 488.776 199.617 488.984C200.001 489.192 200.473 489.296 201.033 489.296C201.609 489.296 202.161 489.184 202.689 488.96C203.217 488.736 203.641 488.448 203.961 488.096Z" fill="#0080FF"/>
<path d="M87.912 507.96V525H85.2V517.488H76.608V525H73.92V507.96H76.608V515.088H85.2V507.96H87.912ZM90.3673 521.328C90.3673 520.528 90.5913 519.832 91.0393 519.24C91.5033 518.632 92.1353 518.168 92.9353 517.848C93.7353 517.512 94.6633 517.344 95.7193 517.344C96.2793 517.344 96.8473 517.384 97.4233 517.464C98.0153 517.544 98.5353 517.672 98.9833 517.848V517.056C98.9833 516.176 98.7193 515.488 98.1913 514.992C97.6633 514.496 96.9033 514.248 95.9113 514.248C95.2073 514.248 94.5433 514.376 93.9193 514.632C93.2953 514.872 92.6313 515.216 91.9273 515.664L91.0393 513.888C91.8713 513.328 92.7033 512.912 93.5353 512.64C94.3833 512.368 95.2713 512.232 96.1993 512.232C97.8793 512.232 99.1993 512.68 100.159 513.576C101.135 514.456 101.623 515.712 101.623 517.344V522.024C101.623 522.328 101.671 522.544 101.767 522.672C101.879 522.8 102.063 522.872 102.319 522.888V525C102.079 525.048 101.863 525.08 101.671 525.096C101.479 525.112 101.319 525.12 101.191 525.12C100.631 525.12 100.207 524.984 99.9193 524.712C99.6313 524.44 99.4633 524.12 99.4153 523.752L99.3433 523.032C98.7993 523.736 98.1033 524.28 97.2553 524.664C96.4073 525.048 95.5513 525.24 94.6873 525.24C93.8553 525.24 93.1113 525.072 92.4553 524.736C91.7993 524.384 91.2873 523.912 90.9193 523.32C90.5513 522.728 90.3673 522.064 90.3673 521.328ZM98.3593 522.096C98.5513 521.888 98.7033 521.68 98.8153 521.472C98.9273 521.264 98.9833 521.08 98.9833 520.92V519.48C98.5353 519.304 98.0633 519.176 97.5673 519.096C97.0713 519 96.5833 518.952 96.1033 518.952C95.1433 518.952 94.3593 519.144 93.7513 519.528C93.1593 519.912 92.8633 520.44 92.8633 521.112C92.8633 521.48 92.9593 521.832 93.1513 522.168C93.3593 522.504 93.6473 522.776 94.0153 522.984C94.3993 523.192 94.8713 523.296 95.4313 523.296C96.0073 523.296 96.5593 523.184 97.0873 522.96C97.6153 522.736 98.0393 522.448 98.3593 522.096ZM111.882 525V520.224C111.402 520.448 110.906 520.616 110.394 520.728C109.882 520.824 109.306 520.872 108.666 520.872C107.322 520.872 106.282 520.52 105.546 519.816C104.826 519.096 104.466 518.032 104.466 516.624V512.448H107.106V516.288C107.106 517.168 107.29 517.816 107.658 518.232C108.026 518.632 108.618 518.832 109.434 518.832C109.882 518.832 110.33 518.784 110.778 518.688C111.226 518.592 111.594 518.464 111.882 518.304V512.448H114.546V525H111.882ZM117.74 525V512.472H120.38V521.472L126.74 512.448H129.14V525H126.5V516.192L120.212 525H117.74ZM132.295 525V512.448H134.935V517.44H140.767V512.448H143.407V525H140.767V519.72H134.935V525H132.295ZM145.68 521.328C145.68 520.528 145.904 519.832 146.352 519.24C146.816 518.632 147.448 518.168 148.248 517.848C149.048 517.512 149.976 517.344 151.032 517.344C151.592 517.344 152.16 517.384 152.736 517.464C153.328 517.544 153.848 517.672 154.296 517.848V517.056C154.296 516.176 154.032 515.488 153.504 514.992C152.976 514.496 152.216 514.248 151.224 514.248C150.52 514.248 149.856 514.376 149.232 514.632C148.608 514.872 147.944 515.216 147.24 515.664L146.352 513.888C147.184 513.328 148.016 512.912 148.848 512.64C149.696 512.368 150.584 512.232 151.512 512.232C153.192 512.232 154.512 512.68 155.472 513.576C156.448 514.456 156.936 515.712 156.936 517.344V522.024C156.936 522.328 156.984 522.544 157.08 522.672C157.192 522.8 157.376 522.872 157.632 522.888V525C157.392 525.048 157.176 525.08 156.984 525.096C156.792 525.112 156.632 525.12 156.504 525.12C155.944 525.12 155.52 524.984 155.232 524.712C154.944 524.44 154.776 524.12 154.728 523.752L154.656 523.032C154.112 523.736 153.416 524.28 152.568 524.664C151.72 525.048 150.864 525.24 150 525.24C149.168 525.24 148.424 525.072 147.768 524.736C147.112 524.384 146.6 523.912 146.232 523.32C145.864 522.728 145.68 522.064 145.68 521.328ZM153.672 522.096C153.864 521.888 154.016 521.68 154.128 521.472C154.24 521.264 154.296 521.08 154.296 520.92V519.48C153.848 519.304 153.376 519.176 152.88 519.096C152.384 519 151.896 518.952 151.416 518.952C150.456 518.952 149.672 519.144 149.064 519.528C148.472 519.912 148.176 520.44 148.176 521.112C148.176 521.48 148.272 521.832 148.464 522.168C148.672 522.504 148.96 522.776 149.328 522.984C149.712 523.192 150.184 523.296 150.744 523.296C151.32 523.296 151.872 523.184 152.4 522.96C152.928 522.736 153.352 522.448 153.672 522.096ZM170.939 525.24C169.835 525.24 168.851 525.008 167.987 524.544C167.139 524.08 166.451 523.448 165.923 522.648C165.411 521.832 165.083 520.912 164.939 519.888H162.779V525H160.139V512.448H162.779V517.584H164.939C165.083 516.528 165.419 515.6 165.947 514.8C166.491 513.984 167.187 513.352 168.035 512.904C168.883 512.456 169.851 512.232 170.939 512.232C172.251 512.232 173.371 512.528 174.299 513.12C175.227 513.712 175.939 514.496 176.435 515.472C176.931 516.448 177.179 517.536 177.179 518.736C177.179 519.968 176.923 521.072 176.411 522.048C175.915 523.024 175.195 523.8 174.251 524.376C173.323 524.952 172.219 525.24 170.939 525.24ZM170.939 522.984C171.643 522.984 172.259 522.808 172.787 522.456C173.315 522.088 173.731 521.592 174.035 520.968C174.339 520.328 174.491 519.584 174.491 518.736C174.491 517.872 174.339 517.128 174.035 516.504C173.731 515.864 173.307 515.368 172.763 515.016C172.219 514.664 171.611 514.488 170.939 514.488C170.267 514.488 169.667 514.664 169.139 515.016C168.627 515.368 168.227 515.864 167.939 516.504C167.651 517.144 167.507 517.888 167.507 518.736C167.507 519.6 167.651 520.352 167.939 520.992C168.243 521.632 168.651 522.128 169.163 522.48C169.691 522.816 170.283 522.984 170.939 522.984ZM195.865 528V525H179.545V512.448H182.185V522.672H186.673V512.448H189.337V522.672H193.801V512.448H196.441V522.672H198.193V528H195.865ZM200.428 525V512.472H203.068V521.472L209.428 512.448H211.828V525H209.188V516.192L202.9 525H200.428ZM214.982 525V512.472H217.622V521.472L223.982 512.448H226.382V525H223.742V516.192L217.454 525H214.982ZM220.694 511.152C219.51 511.152 218.59 510.856 217.934 510.264C217.294 509.672 216.974 508.928 216.974 508.032H218.702C218.702 508.496 218.854 508.88 219.158 509.184C219.478 509.488 219.99 509.64 220.694 509.64C221.382 509.64 221.87 509.496 222.158 509.208C222.462 508.92 222.646 508.528 222.71 508.032H224.438C224.438 508.928 224.11 509.672 223.454 510.264C222.814 510.856 221.894 511.152 220.694 511.152Z" fill="#070E18"/>
<rect x="320" y="165" width="300" height="391" rx="20" fill="#0080FF"/>
<path d="M377.132 223.32C375.809 223.32 374.625 223.096 373.58 222.648C372.535 222.179 371.628 221.539 370.86 220.728C370.113 219.917 369.537 219 369.132 217.976C368.727 216.931 368.524 215.821 368.524 214.648C368.524 213.475 368.727 212.365 369.132 211.32C369.537 210.275 370.113 209.357 370.86 208.568C371.628 207.757 372.535 207.128 373.58 206.68C374.647 206.211 375.831 205.976 377.132 205.976C378.433 205.976 379.607 206.211 380.652 206.68C381.719 207.128 382.625 207.757 383.372 208.568C384.14 209.357 384.727 210.275 385.132 211.32C385.537 212.365 385.74 213.475 385.74 214.648C385.74 215.821 385.537 216.931 385.132 217.976C384.727 219 384.14 219.917 383.372 220.728C382.625 221.539 381.719 222.179 380.652 222.648C379.607 223.096 378.433 223.32 377.132 223.32ZM372.14 214.68C372.14 215.747 372.364 216.707 372.812 217.56C373.26 218.413 373.857 219.085 374.604 219.576C375.351 220.067 376.193 220.312 377.132 220.312C378.049 220.312 378.881 220.067 379.628 219.576C380.396 219.064 381.004 218.381 381.452 217.528C381.9 216.653 382.124 215.693 382.124 214.648C382.124 213.581 381.9 212.621 381.452 211.768C381.004 210.915 380.396 210.243 379.628 209.752C378.881 209.24 378.049 208.984 377.132 208.984C376.193 208.984 375.351 209.24 374.604 209.752C373.857 210.264 373.26 210.947 372.812 211.8C372.364 212.632 372.14 213.592 372.14 214.68ZM392.83 223V209.368H387.294V206.264H401.918V209.368H396.35V223H392.83Z" fill="white"/>
<path d="M428.676 219.832V223H416.612V219.832H420.996V203.64C420.825 203.896 420.537 204.184 420.132 204.504C419.748 204.803 419.311 205.101 418.82 205.4C418.329 205.677 417.817 205.912 417.284 206.104C416.772 206.296 416.303 206.392 415.876 206.392V203.128C416.452 203.128 417.028 202.979 417.604 202.68C418.201 202.381 418.756 202.04 419.268 201.656C419.78 201.251 420.185 200.888 420.484 200.568C420.804 200.248 420.975 200.077 420.996 200.056H424.612V219.832H428.676ZM430.783 223C430.783 221.699 430.879 220.557 431.071 219.576C431.263 218.595 431.562 217.709 431.967 216.92C432.372 216.131 432.884 215.437 433.503 214.84C434.122 214.243 434.836 213.699 435.647 213.208C436.436 212.739 437.247 212.301 438.079 211.896C438.932 211.491 439.722 211.064 440.447 210.616C441.172 210.168 441.748 209.645 442.175 209.048C442.623 208.429 442.847 207.683 442.847 206.808C442.847 206.104 442.698 205.485 442.399 204.952C442.122 204.419 441.695 204.003 441.119 203.704C440.564 203.384 439.85 203.224 438.975 203.224C438.079 203.224 437.247 203.384 436.479 203.704C435.732 204.003 435.071 204.376 434.495 204.824C433.94 205.272 433.492 205.709 433.151 206.136L430.911 203.8C431.124 203.544 431.466 203.203 431.935 202.776C432.426 202.349 433.023 201.923 433.727 201.496C434.452 201.069 435.284 200.717 436.223 200.44C437.162 200.141 438.218 199.992 439.391 199.992C441.012 199.992 442.367 200.291 443.455 200.888C444.564 201.464 445.396 202.264 445.951 203.288C446.527 204.291 446.815 205.421 446.815 206.68C446.815 207.704 446.634 208.6 446.271 209.368C445.908 210.115 445.428 210.765 444.831 211.32C444.255 211.853 443.604 212.333 442.879 212.76C442.175 213.187 441.471 213.592 440.767 213.976C439.551 214.595 438.57 215.149 437.823 215.64C437.098 216.131 436.522 216.6 436.095 217.048C435.69 217.496 435.402 217.944 435.231 218.392C435.06 218.84 434.943 219.32 434.879 219.832H446.847V223H430.783ZM459.667 223.32C458.067 223.277 456.659 222.904 455.443 222.2C454.227 221.496 453.214 220.579 452.403 219.448C451.593 218.296 450.974 217.059 450.547 215.736C450.142 214.392 449.939 213.08 449.939 211.8C449.939 210.435 450.163 209.069 450.611 207.704C451.059 206.339 451.71 205.101 452.563 203.992C453.417 202.861 454.441 201.965 455.635 201.304C456.83 200.621 458.174 200.28 459.667 200.28C461.267 200.28 462.665 200.643 463.859 201.368C465.075 202.093 466.089 203.032 466.899 204.184C467.71 205.336 468.318 206.584 468.723 207.928C469.15 209.272 469.363 210.563 469.363 211.8C469.363 213.187 469.139 214.563 468.691 215.928C468.243 217.272 467.593 218.499 466.739 219.608C465.886 220.717 464.862 221.613 463.667 222.296C462.494 222.957 461.161 223.299 459.667 223.32ZM453.587 211.8C453.63 212.781 453.769 213.763 454.003 214.744C454.259 215.704 454.643 216.589 455.155 217.4C455.667 218.211 456.297 218.861 457.043 219.352C457.79 219.843 458.665 220.088 459.667 220.088C460.713 220.088 461.609 219.832 462.355 219.32C463.123 218.787 463.753 218.104 464.243 217.272C464.734 216.419 465.097 215.512 465.331 214.552C465.587 213.592 465.715 212.675 465.715 211.8C465.715 210.819 465.577 209.848 465.299 208.888C465.043 207.907 464.659 207.011 464.147 206.2C463.635 205.389 463.006 204.739 462.259 204.248C461.513 203.757 460.649 203.512 459.667 203.512C458.622 203.512 457.715 203.779 456.947 204.312C456.179 204.824 455.55 205.507 455.059 206.36C454.569 207.192 454.195 208.088 453.939 209.048C453.705 210.008 453.587 210.925 453.587 211.8ZM489.824 223.32C488.224 223.277 486.816 222.904 485.6 222.2C484.384 221.496 483.37 220.579 482.56 219.448C481.749 218.296 481.13 217.059 480.704 215.736C480.298 214.392 480.096 213.08 480.096 211.8C480.096 210.435 480.32 209.069 480.768 207.704C481.216 206.339 481.866 205.101 482.72 203.992C483.573 202.861 484.597 201.965 485.792 201.304C486.986 200.621 488.33 200.28 489.824 200.28C491.424 200.28 492.821 200.643 494.016 201.368C495.232 202.093 496.245 203.032 497.056 204.184C497.866 205.336 498.474 206.584 498.88 207.928C499.306 209.272 499.52 210.563 499.52 211.8C499.52 213.187 499.296 214.563 498.848 215.928C498.4 217.272 497.749 218.499 496.896 219.608C496.042 220.717 495.018 221.613 493.824 222.296C492.65 222.957 491.317 223.299 489.824 223.32ZM483.744 211.8C483.786 212.781 483.925 213.763 484.16 214.744C484.416 215.704 484.8 216.589 485.312 217.4C485.824 218.211 486.453 218.861 487.2 219.352C487.946 219.843 488.821 220.088 489.824 220.088C490.869 220.088 491.765 219.832 492.512 219.32C493.28 218.787 493.909 218.104 494.4 217.272C494.89 216.419 495.253 215.512 495.488 214.552C495.744 213.592 495.872 212.675 495.872 211.8C495.872 210.819 495.733 209.848 495.456 208.888C495.2 207.907 494.816 207.011 494.304 206.2C493.792 205.389 493.162 204.739 492.416 204.248C491.669 203.757 490.805 203.512 489.824 203.512C488.778 203.512 487.872 203.779 487.104 204.312C486.336 204.824 485.706 205.507 485.216 206.36C484.725 207.192 484.352 208.088 484.096 209.048C483.861 210.008 483.744 210.925 483.744 211.8ZM512.074 223.32C510.474 223.277 509.066 222.904 507.85 222.2C506.634 221.496 505.62 220.579 504.81 219.448C503.999 218.296 503.38 217.059 502.954 215.736C502.548 214.392 502.346 213.08 502.346 211.8C502.346 210.435 502.57 209.069 503.018 207.704C503.466 206.339 504.116 205.101 504.97 203.992C505.823 202.861 506.847 201.965 508.042 201.304C509.236 200.621 510.58 200.28 512.074 200.28C513.674 200.28 515.071 200.643 516.266 201.368C517.482 202.093 518.495 203.032 519.306 204.184C520.116 205.336 520.724 206.584 521.13 207.928C521.556 209.272 521.77 210.563 521.77 211.8C521.77 213.187 521.546 214.563 521.098 215.928C520.65 217.272 519.999 218.499 519.146 219.608C518.292 220.717 517.268 221.613 516.074 222.296C514.9 222.957 513.567 223.299 512.074 223.32ZM505.994 211.8C506.036 212.781 506.175 213.763 506.41 214.744C506.666 215.704 507.05 216.589 507.562 217.4C508.074 218.211 508.703 218.861 509.45 219.352C510.196 219.843 511.071 220.088 512.074 220.088C513.119 220.088 514.015 219.832 514.762 219.32C515.53 218.787 516.159 218.104 516.65 217.272C517.14 216.419 517.503 215.512 517.738 214.552C517.994 213.592 518.122 212.675 518.122 211.8C518.122 210.819 517.983 209.848 517.706 208.888C517.45 207.907 517.066 207.011 516.554 206.2C516.042 205.389 515.412 204.739 514.666 204.248C513.919 203.757 513.055 203.512 512.074 203.512C511.028 203.512 510.122 203.779 509.354 204.312C508.586 204.824 507.956 205.507 507.466 206.36C506.975 207.192 506.602 208.088 506.346 209.048C506.111 210.008 505.994 210.925 505.994 211.8ZM534.324 223.32C532.724 223.277 531.316 222.904 530.1 222.2C528.884 221.496 527.87 220.579 527.06 219.448C526.249 218.296 525.63 217.059 525.204 215.736C524.798 214.392 524.596 213.08 524.596 211.8C524.596 210.435 524.82 209.069 525.268 207.704C525.716 206.339 526.366 205.101 527.22 203.992C528.073 202.861 529.097 201.965 530.292 201.304C531.486 200.621 532.83 200.28 534.324 200.28C535.924 200.28 537.321 200.643 538.516 201.368C539.732 202.093 540.745 203.032 541.556 204.184C542.366 205.336 542.974 206.584 543.38 207.928C543.806 209.272 544.02 210.563 544.02 211.8C544.02 213.187 543.796 214.563 543.348 215.928C542.9 217.272 542.249 218.499 541.396 219.608C540.542 220.717 539.518 221.613 538.324 222.296C537.15 222.957 535.817 223.299 534.324 223.32ZM528.244 211.8C528.286 212.781 528.425 213.763 528.66 214.744C528.916 215.704 529.3 216.589 529.812 217.4C530.324 218.211 530.953 218.861 531.7 219.352C532.446 219.843 533.321 220.088 534.324 220.088C535.369 220.088 536.265 219.832 537.012 219.32C537.78 218.787 538.409 218.104 538.9 217.272C539.39 216.419 539.753 215.512 539.988 214.552C540.244 213.592 540.372 212.675 540.372 211.8C540.372 210.819 540.233 209.848 539.956 208.888C539.7 207.907 539.316 207.011 538.804 206.2C538.292 205.389 537.662 204.739 536.916 204.248C536.169 203.757 535.305 203.512 534.324 203.512C533.278 203.512 532.372 203.779 531.604 204.312C530.836 204.824 530.206 205.507 529.716 206.36C529.225 207.192 528.852 208.088 528.596 209.048C528.361 210.008 528.244 210.925 528.244 211.8ZM553.344 215.096V211.928H562.464V215.096H553.344ZM553.344 219.288V217.112H564.128V219.288H553.344ZM555.872 223V200.28H563.968C565.056 200.28 566.026 200.493 566.88 200.92C567.754 201.347 568.49 201.912 569.088 202.616C569.706 203.32 570.176 204.109 570.496 204.984C570.837 205.859 571.008 206.755 571.008 207.672C571.008 208.931 570.73 210.136 570.176 211.288C569.642 212.419 568.864 213.336 567.84 214.04C566.837 214.744 565.6 215.096 564.128 215.096H559.488V223H555.872ZM559.488 211.928H563.936C564.768 211.928 565.429 211.747 565.92 211.384C566.432 211 566.794 210.488 567.008 209.848C567.242 209.208 567.36 208.483 567.36 207.672C567.36 206.84 567.221 206.104 566.944 205.464C566.688 204.824 566.282 204.333 565.728 203.992C565.194 203.629 564.522 203.448 563.712 203.448H559.488V211.928Z" fill="white"/>
<path d="M433.632 488.624V491H424.584V488.624H427.872V476.48C427.744 476.672 427.528 476.888 427.224 477.128C426.936 477.352 426.608 477.576 426.24 477.8C425.872 478.008 425.488 478.184 425.088 478.328C424.704 478.472 424.352 478.544 424.032 478.544V476.096C424.464 476.096 424.896 475.984 425.328 475.76C425.776 475.536 426.192 475.28 426.576 474.992C426.96 474.688 427.264 474.416 427.488 474.176C427.728 473.936 427.856 473.808 427.872 473.792H430.584V488.624H433.632ZM435.62 485.624V483.248H442.796V485.624H435.62ZM450.906 491.192C449.962 491.192 449.098 491.056 448.314 490.784C447.546 490.512 446.898 490.12 446.37 489.608C445.842 489.096 445.458 488.504 445.218 487.832L446.658 486.104C446.77 486.52 447.002 486.936 447.354 487.352C447.722 487.768 448.194 488.104 448.77 488.36C449.362 488.616 450.05 488.744 450.834 488.744C451.522 488.744 452.13 488.64 452.658 488.432C453.202 488.208 453.634 487.896 453.954 487.496C454.274 487.096 454.434 486.624 454.434 486.08C454.434 485.472 454.242 484.96 453.858 484.544C453.474 484.128 452.922 483.816 452.202 483.608C451.482 483.4 450.618 483.296 449.61 483.296H448.794V481.184H449.61C450.938 481.184 451.994 480.968 452.778 480.536C453.578 480.104 453.978 479.464 453.978 478.616C453.978 478.088 453.834 477.632 453.546 477.248C453.258 476.848 452.882 476.552 452.418 476.36C451.954 476.152 451.442 476.048 450.882 476.048C449.97 476.048 449.178 476.256 448.506 476.672C447.834 477.088 447.346 477.6 447.042 478.208L445.314 476.312C445.65 475.784 446.114 475.328 446.706 474.944C447.298 474.56 447.962 474.264 448.698 474.056C449.45 473.848 450.21 473.744 450.978 473.744C452.098 473.744 453.098 473.944 453.978 474.344C454.858 474.744 455.546 475.296 456.042 476C456.538 476.688 456.786 477.472 456.786 478.352C456.786 478.992 456.65 479.568 456.378 480.08C456.122 480.592 455.746 481.024 455.25 481.376C454.77 481.712 454.194 481.96 453.522 482.12C454.242 482.248 454.874 482.52 455.418 482.936C455.978 483.352 456.402 483.864 456.69 484.472C456.994 485.08 457.146 485.744 457.146 486.464C457.146 487.456 456.858 488.304 456.282 489.008C455.722 489.712 454.97 490.256 454.026 490.64C453.082 491.008 452.042 491.192 450.906 491.192ZM465.811 491V478.448H473.827V480.776H468.451V491H465.811ZM481.458 491.24C480.466 491.24 479.578 491.072 478.794 490.736C478.01 490.384 477.33 489.904 476.754 489.296C476.194 488.688 475.762 488 475.458 487.232C475.154 486.448 475.002 485.616 475.002 484.736C475.002 483.856 475.154 483.024 475.458 482.24C475.762 481.456 476.194 480.768 476.754 480.176C477.33 479.568 478.01 479.096 478.794 478.76C479.594 478.408 480.482 478.232 481.458 478.232C482.434 478.232 483.314 478.408 484.098 478.76C484.898 479.096 485.578 479.568 486.138 480.176C486.714 480.768 487.154 481.456 487.458 482.24C487.762 483.024 487.914 483.856 487.914 484.736C487.914 485.616 487.762 486.448 487.458 487.232C487.154 488 486.714 488.688 486.138 489.296C485.578 489.904 484.898 490.384 484.098 490.736C483.314 491.072 482.434 491.24 481.458 491.24ZM477.714 484.76C477.714 485.56 477.882 486.28 478.218 486.92C478.554 487.56 479.002 488.064 479.562 488.432C480.122 488.8 480.754 488.984 481.458 488.984C482.146 488.984 482.77 488.8 483.33 488.432C483.906 488.048 484.362 487.536 484.698 486.896C485.034 486.24 485.202 485.52 485.202 484.736C485.202 483.936 485.034 483.216 484.698 482.576C484.362 481.936 483.906 481.432 483.33 481.064C482.77 480.68 482.146 480.488 481.458 480.488C480.754 480.488 480.122 480.68 479.562 481.064C479.002 481.448 478.554 481.96 478.218 482.6C477.882 483.224 477.714 483.944 477.714 484.76ZM489.056 494V488.672H489.344C489.68 488.672 489.992 488.576 490.28 488.384C490.568 488.192 490.824 487.864 491.048 487.4C491.272 486.92 491.456 486.264 491.6 485.432C491.744 484.584 491.832 483.52 491.864 482.24L492.008 478.448H500.96V488.672H502.688V494H500.36V491H491.36V494H489.056ZM492.824 488.672H498.32V480.728H494.336L494.264 482.48C494.216 483.696 494.128 484.72 494 485.552C493.888 486.384 493.728 487.048 493.52 487.544C493.328 488.04 493.096 488.416 492.824 488.672ZM504.016 487.328C504.016 486.528 504.24 485.832 504.688 485.24C505.152 484.632 505.784 484.168 506.584 483.848C507.384 483.512 508.312 483.344 509.368 483.344C509.928 483.344 510.496 483.384 511.072 483.464C511.664 483.544 512.184 483.672 512.632 483.848V483.056C512.632 482.176 512.368 481.488 511.84 480.992C511.312 480.496 510.552 480.248 509.56 480.248C508.856 480.248 508.192 480.376 507.568 480.632C506.944 480.872 506.28 481.216 505.576 481.664L504.688 479.888C505.52 479.328 506.352 478.912 507.184 478.64C508.032 478.368 508.92 478.232 509.848 478.232C511.528 478.232 512.848 478.68 513.808 479.576C514.784 480.456 515.272 481.712 515.272 483.344V488.024C515.272 488.328 515.32 488.544 515.416 488.672C515.528 488.8 515.712 488.872 515.968 488.888V491C515.728 491.048 515.512 491.08 515.32 491.096C515.128 491.112 514.968 491.12 514.84 491.12C514.28 491.12 513.856 490.984 513.568 490.712C513.28 490.44 513.112 490.12 513.064 489.752L512.992 489.032C512.448 489.736 511.752 490.28 510.904 490.664C510.056 491.048 509.2 491.24 508.336 491.24C507.504 491.24 506.76 491.072 506.104 490.736C505.448 490.384 504.936 489.912 504.568 489.32C504.2 488.728 504.016 488.064 504.016 487.328ZM512.008 488.096C512.2 487.888 512.352 487.68 512.464 487.472C512.576 487.264 512.632 487.08 512.632 486.92V485.48C512.184 485.304 511.712 485.176 511.216 485.096C510.72 485 510.232 484.952 509.752 484.952C508.792 484.952 508.008 485.144 507.4 485.528C506.808 485.912 506.512 486.44 506.512 487.112C506.512 487.48 506.608 487.832 506.8 488.168C507.008 488.504 507.296 488.776 507.664 488.984C508.048 489.192 508.52 489.296 509.08 489.296C509.656 489.296 510.208 489.184 510.736 488.96C511.264 488.736 511.688 488.448 512.008 488.096Z" fill="#F5FAFF"/>
<path d="M425 525.12C423.768 525.12 422.656 524.88 421.664 524.4C420.672 523.92 419.816 523.272 419.096 522.456C418.376 521.624 417.816 520.696 417.416 519.672C417.032 518.632 416.84 517.568 416.84 516.48C416.84 515.344 417.048 514.264 417.464 513.24C417.88 512.2 418.456 511.28 419.192 510.48C419.928 509.664 420.792 509.024 421.784 508.56C422.792 508.08 423.88 507.84 425.048 507.84C426.264 507.84 427.368 508.088 428.36 508.584C429.368 509.08 430.224 509.744 430.928 510.576C431.648 511.408 432.2 512.336 432.584 513.36C432.984 514.384 433.184 515.432 433.184 516.504C433.184 517.64 432.976 518.728 432.56 519.768C432.16 520.792 431.592 521.712 430.856 522.528C430.12 523.328 429.248 523.96 428.24 524.424C427.248 524.888 426.168 525.12 425 525.12ZM419.576 516.48C419.576 517.28 419.704 518.056 419.96 518.808C420.216 519.56 420.576 520.232 421.04 520.824C421.52 521.4 422.096 521.856 422.768 522.192C423.44 522.528 424.192 522.696 425.024 522.696C425.888 522.696 426.656 522.52 427.328 522.168C428 521.816 428.56 521.344 429.008 520.752C429.472 520.144 429.824 519.472 430.064 518.736C430.304 517.984 430.424 517.232 430.424 516.48C430.424 515.68 430.296 514.912 430.04 514.176C429.8 513.424 429.44 512.76 428.96 512.184C428.48 511.592 427.904 511.128 427.232 510.792C426.576 510.456 425.84 510.288 425.024 510.288C424.16 510.288 423.392 510.464 422.72 510.816C422.048 511.168 421.48 511.64 421.016 512.232C420.552 512.824 420.192 513.488 419.936 514.224C419.696 514.96 419.576 515.712 419.576 516.48ZM435.514 525V512.448H446.314V525H443.674V514.776H438.154V525H435.514ZM449.506 525V512.448H452.146V516.576H454.522C456.01 516.576 457.146 516.952 457.93 517.704C458.714 518.456 459.106 519.448 459.106 520.68C459.106 521.512 458.938 522.256 458.602 522.912C458.266 523.568 457.77 524.08 457.114 524.448C456.474 524.816 455.674 525 454.714 525H449.506ZM452.146 522.96H454.306C454.834 522.96 455.258 522.864 455.578 522.672C455.898 522.464 456.13 522.192 456.274 521.856C456.434 521.504 456.514 521.128 456.514 520.728C456.514 520.328 456.442 519.968 456.298 519.648C456.154 519.312 455.914 519.048 455.578 518.856C455.258 518.648 454.826 518.544 454.282 518.544H452.146V522.96ZM461.17 525V512.472H463.81V525H461.17ZM469.966 525V514.776H465.814V512.448H476.782V514.776H472.606V525H469.966ZM478.756 525V512.448H481.396V517.44H487.228V512.448H489.868V525H487.228V519.72H481.396V525H478.756ZM493.053 525V512.448H495.693V516.576H498.069C499.557 516.576 500.693 516.952 501.477 517.704C502.261 518.456 502.653 519.448 502.653 520.68C502.653 521.512 502.485 522.256 502.149 522.912C501.813 523.568 501.317 524.08 500.661 524.448C500.021 524.816 499.221 525 498.261 525H493.053ZM495.693 522.96H497.853C498.381 522.96 498.805 522.864 499.125 522.672C499.445 522.464 499.677 522.192 499.821 521.856C499.981 521.504 500.061 521.128 500.061 520.728C500.061 520.328 499.989 519.968 499.845 519.648C499.701 519.312 499.461 519.048 499.125 518.856C498.805 518.648 498.373 518.544 497.829 518.544H495.693V522.96ZM504.717 525V512.472H507.357V525H504.717ZM510.537 525V512.472H513.177V521.472L519.537 512.448H521.937V525H519.297V516.192L513.009 525H510.537ZM516.249 511.152C515.065 511.152 514.145 510.856 513.489 510.264C512.849 509.672 512.529 508.928 512.529 508.032H514.257C514.257 508.496 514.409 508.88 514.713 509.184C515.033 509.488 515.545 509.64 516.249 509.64C516.937 509.64 517.425 509.496 517.713 509.208C518.017 508.92 518.201 508.528 518.265 508.032H519.993C519.993 508.928 519.665 509.672 519.009 510.264C518.369 510.856 517.449 511.152 516.249 511.152Z" fill="white"/>
<rect x="640" width="300" height="556" rx="20" fill="#E3EAF7"/>
<path d="M695.132 58.32C693.809 58.32 692.625 58.096 691.58 57.648C690.535 57.1787 689.628 56.5387 688.86 55.728C688.113 54.9173 687.537 54 687.132 52.976C686.727 51.9307 686.524 50.8213 686.524 49.648C686.524 48.4747 686.727 47.3653 687.132 46.32C687.537 45.2747 688.113 44.3573 688.86 43.568C689.628 42.7573 690.535 42.128 691.58 41.68C692.647 41.2107 693.831 40.976 695.132 40.976C696.433 40.976 697.607 41.2107 698.652 41.68C699.719 42.128 700.625 42.7573 701.372 43.568C702.14 44.3573 702.727 45.2747 703.132 46.32C703.537 47.3653 703.74 48.4747 703.74 49.648C703.74 50.8213 703.537 51.9307 703.132 52.976C702.727 54 702.14 54.9173 701.372 55.728C700.625 56.5387 699.719 57.1787 698.652 57.648C697.607 58.096 696.433 58.32 695.132 58.32ZM690.14 49.68C690.14 50.7467 690.364 51.7067 690.812 52.56C691.26 53.4133 691.857 54.0853 692.604 54.576C693.351 55.0667 694.193 55.312 695.132 55.312C696.049 55.312 696.881 55.0667 697.628 54.576C698.396 54.064 699.004 53.3813 699.452 52.528C699.9 51.6533 700.124 50.6933 700.124 49.648C700.124 48.5813 699.9 47.6213 699.452 46.768C699.004 45.9147 698.396 45.2427 697.628 44.752C696.881 44.24 696.049 43.984 695.132 43.984C694.193 43.984 693.351 44.24 692.604 44.752C691.857 45.264 691.26 45.9467 690.812 46.8C690.364 47.632 690.14 48.592 690.14 49.68ZM710.83 58V44.368H705.294V41.264H719.918V44.368H714.35V58H710.83Z" fill="#070E18"/>
<path d="M741.364 58.256C740.105 58.256 738.953 58.0747 737.908 57.712C736.884 57.3493 736.02 56.8267 735.316 56.144C734.612 55.4613 734.1 54.672 733.78 53.776L735.7 51.472C735.849 52.0267 736.159 52.5813 736.628 53.136C737.119 53.6907 737.748 54.1387 738.516 54.48C739.305 54.8213 740.223 54.992 741.268 54.992C742.185 54.992 742.996 54.8533 743.7 54.576C744.425 54.2773 745.001 53.8613 745.428 53.328C745.855 52.7947 746.068 52.1653 746.068 51.44C746.068 50.6293 745.812 49.9467 745.3 49.392C744.788 48.8373 744.052 48.4213 743.092 48.144C742.132 47.8667 740.98 47.728 739.636 47.728H738.548V44.912H739.636C741.407 44.912 742.815 44.624 743.86 44.048C744.927 43.472 745.46 42.6187 745.46 41.488C745.46 40.784 745.268 40.176 744.884 39.664C744.5 39.1307 743.999 38.736 743.38 38.48C742.761 38.2027 742.079 38.064 741.332 38.064C740.116 38.064 739.06 38.3413 738.164 38.896C737.268 39.4507 736.617 40.1333 736.212 40.944L733.908 38.416C734.356 37.712 734.975 37.104 735.764 36.592C736.553 36.08 737.439 35.6853 738.42 35.408C739.423 35.1307 740.436 34.992 741.46 34.992C742.953 34.992 744.287 35.2587 745.46 35.792C746.633 36.3253 747.551 37.0613 748.212 38C748.873 38.9173 749.204 39.9627 749.204 41.136C749.204 41.9893 749.023 42.7573 748.66 43.44C748.319 44.1227 747.817 44.6987 747.156 45.168C746.516 45.616 745.748 45.9467 744.852 46.16C745.812 46.3307 746.655 46.6933 747.38 47.248C748.127 47.8027 748.692 48.4853 749.076 49.296C749.481 50.1067 749.684 50.992 749.684 51.952C749.684 53.2747 749.3 54.4053 748.532 55.344C747.785 56.2827 746.783 57.008 745.524 57.52C744.265 58.0107 742.879 58.256 741.364 58.256ZM769.267 50.448C769.267 51.8987 768.904 53.2213 768.179 54.416C767.475 55.6107 766.493 56.56 765.235 57.264C763.997 57.968 762.611 58.32 761.075 58.32C759.411 58.32 757.949 57.9253 756.691 57.136C755.453 56.3253 754.483 55.1627 753.779 53.648C753.096 52.1333 752.755 50.3307 752.755 48.24C752.755 45.3387 753.107 42.9173 753.811 40.976C754.536 39.0347 755.549 37.5733 756.851 36.592C758.152 35.6107 759.677 35.12 761.427 35.12C762.877 35.12 764.2 35.4613 765.395 36.144C766.611 36.8053 767.592 37.7333 768.339 38.928L766.259 41.104C765.768 40.208 765.085 39.504 764.211 38.992C763.357 38.4587 762.408 38.192 761.363 38.192C760.317 38.192 759.389 38.5013 758.579 39.12C757.789 39.7173 757.171 40.592 756.723 41.744C756.296 42.896 756.072 44.2933 756.051 45.936C756.371 45.296 756.787 44.752 757.299 44.304C757.832 43.8347 758.451 43.472 759.155 43.216C759.859 42.96 760.605 42.832 761.395 42.832C762.888 42.832 764.221 43.1733 765.395 43.856C766.589 44.5387 767.528 45.456 768.211 46.608C768.915 47.7387 769.267 49.0187 769.267 50.448ZM761.075 55.312C761.949 55.312 762.749 55.0987 763.475 54.672C764.221 54.224 764.808 53.6267 765.235 52.88C765.683 52.1333 765.907 51.3227 765.907 50.448C765.907 49.5733 765.683 48.7733 765.235 48.048C764.808 47.3227 764.232 46.7467 763.507 46.32C762.781 45.872 761.971 45.648 761.075 45.648C760.221 45.648 759.421 45.872 758.675 46.32C757.928 46.7467 757.331 47.3227 756.883 48.048C756.456 48.7733 756.243 49.5733 756.243 50.448C756.243 51.3227 756.467 52.1333 756.915 52.88C757.363 53.6053 757.949 54.192 758.675 54.64C759.421 55.088 760.221 55.312 761.075 55.312ZM781.792 58.32C780.192 58.2773 778.784 57.904 777.568 57.2C776.352 56.496 775.339 55.5787 774.528 54.448C773.718 53.296 773.099 52.0587 772.672 50.736C772.267 49.392 772.064 48.08 772.064 46.8C772.064 45.4347 772.288 44.0693 772.736 42.704C773.184 41.3387 773.835 40.1013 774.688 38.992C775.542 37.8613 776.566 36.9653 777.76 36.304C778.955 35.6213 780.299 35.28 781.792 35.28C783.392 35.28 784.79 35.6427 785.984 36.368C787.2 37.0933 788.214 38.032 789.024 39.184C789.835 40.336 790.443 41.584 790.848 42.928C791.275 44.272 791.488 45.5627 791.488 46.8C791.488 48.1867 791.264 49.5627 790.816 50.928C790.368 52.272 789.718 53.4987 788.864 54.608C788.011 55.7173 786.987 56.6133 785.792 57.296C784.619 57.9573 783.286 58.2987 781.792 58.32ZM775.712 46.8C775.755 47.7813 775.894 48.7627 776.128 49.744C776.384 50.704 776.768 51.5893 777.28 52.4C777.792 53.2107 778.422 53.8613 779.168 54.352C779.915 54.8427 780.79 55.088 781.792 55.088C782.838 55.088 783.734 54.832 784.48 54.32C785.248 53.7867 785.878 53.104 786.368 52.272C786.859 51.4187 787.222 50.512 787.456 49.552C787.712 48.592 787.84 47.6747 787.84 46.8C787.84 45.8187 787.702 44.848 787.424 43.888C787.168 42.9067 786.784 42.0107 786.272 41.2C785.76 40.3893 785.131 39.7387 784.384 39.248C783.638 38.7573 782.774 38.512 781.792 38.512C780.747 38.512 779.84 38.7787 779.072 39.312C778.304 39.824 777.675 40.5067 777.184 41.36C776.694 42.192 776.32 43.088 776.064 44.048C775.83 45.008 775.712 45.9253 775.712 46.8ZM811.949 58.32C810.349 58.2773 808.941 57.904 807.725 57.2C806.509 56.496 805.495 55.5787 804.685 54.448C803.874 53.296 803.255 52.0587 802.829 50.736C802.423 49.392 802.221 48.08 802.221 46.8C802.221 45.4347 802.445 44.0693 802.893 42.704C803.341 41.3387 803.991 40.1013 804.845 38.992C805.698 37.8613 806.722 36.9653 807.917 36.304C809.111 35.6213 810.455 35.28 811.949 35.28C813.549 35.28 814.946 35.6427 816.141 36.368C817.357 37.0933 818.37 38.032 819.181 39.184C819.991 40.336 820.599 41.584 821.005 42.928C821.431 44.272 821.645 45.5627 821.645 46.8C821.645 48.1867 821.421 49.5627 820.973 50.928C820.525 52.272 819.874 53.4987 819.021 54.608C818.167 55.7173 817.143 56.6133 815.949 57.296C814.775 57.9573 813.442 58.2987 811.949 58.32ZM805.869 46.8C805.911 47.7813 806.05 48.7627 806.285 49.744C806.541 50.704 806.925 51.5893 807.437 52.4C807.949 53.2107 808.578 53.8613 809.325 54.352C810.071 54.8427 810.946 55.088 811.949 55.088C812.994 55.088 813.89 54.832 814.637 54.32C815.405 53.7867 816.034 53.104 816.525 52.272C817.015 51.4187 817.378 50.512 817.613 49.552C817.869 48.592 817.997 47.6747 817.997 46.8C817.997 45.8187 817.858 44.848 817.581 43.888C817.325 42.9067 816.941 42.0107 816.429 41.2C815.917 40.3893 815.287 39.7387 814.541 39.248C813.794 38.7573 812.93 38.512 811.949 38.512C810.903 38.512 809.997 38.7787 809.229 39.312C808.461 39.824 807.831 40.5067 807.341 41.36C806.85 42.192 806.477 43.088 806.221 44.048C805.986 45.008 805.869 45.9253 805.869 46.8ZM834.199 58.32C832.599 58.2773 831.191 57.904 829.975 57.2C828.759 56.496 827.745 55.5787 826.935 54.448C826.124 53.296 825.505 52.0587 825.079 50.736C824.673 49.392 824.471 48.08 824.471 46.8C824.471 45.4347 824.695 44.0693 825.143 42.704C825.591 41.3387 826.241 40.1013 827.095 38.992C827.948 37.8613 828.972 36.9653 830.167 36.304C831.361 35.6213 832.705 35.28 834.199 35.28C835.799 35.28 837.196 35.6427 838.391 36.368C839.607 37.0933 840.62 38.032 841.431 39.184C842.241 40.336 842.849 41.584 843.255 42.928C843.681 44.272 843.895 45.5627 843.895 46.8C843.895 48.1867 843.671 49.5627 843.223 50.928C842.775 52.272 842.124 53.4987 841.271 54.608C840.417 55.7173 839.393 56.6133 838.199 57.296C837.025 57.9573 835.692 58.2987 834.199 58.32ZM828.119 46.8C828.161 47.7813 828.3 48.7627 828.535 49.744C828.791 50.704 829.175 51.5893 829.687 52.4C830.199 53.2107 830.828 53.8613 831.575 54.352C832.321 54.8427 833.196 55.088 834.199 55.088C835.244 55.088 836.14 54.832 836.887 54.32C837.655 53.7867 838.284 53.104 838.775 52.272C839.265 51.4187 839.628 50.512 839.863 49.552C840.119 48.592 840.247 47.6747 840.247 46.8C840.247 45.8187 840.108 44.848 839.831 43.888C839.575 42.9067 839.191 42.0107 838.679 41.2C838.167 40.3893 837.537 39.7387 836.791 39.248C836.044 38.7573 835.18 38.512 834.199 38.512C833.153 38.512 832.247 38.7787 831.479 39.312C830.711 39.824 830.081 40.5067 829.591 41.36C829.1 42.192 828.727 43.088 828.471 44.048C828.236 45.008 828.119 45.9253 828.119 46.8ZM856.449 58.32C854.849 58.2773 853.441 57.904 852.225 57.2C851.009 56.496 849.995 55.5787 849.185 54.448C848.374 53.296 847.755 52.0587 847.329 50.736C846.923 49.392 846.721 48.08 846.721 46.8C846.721 45.4347 846.945 44.0693 847.393 42.704C847.841 41.3387 848.491 40.1013 849.345 38.992C850.198 37.8613 851.222 36.9653 852.417 36.304C853.611 35.6213 854.955 35.28 856.449 35.28C858.049 35.28 859.446 35.6427 860.641 36.368C861.857 37.0933 862.87 38.032 863.681 39.184C864.491 40.336 865.099 41.584 865.505 42.928C865.931 44.272 866.145 45.5627 866.145 46.8C866.145 48.1867 865.921 49.5627 865.473 50.928C865.025 52.272 864.374 53.4987 863.521 54.608C862.667 55.7173 861.643 56.6133 860.449 57.296C859.275 57.9573 857.942 58.2987 856.449 58.32ZM850.369 46.8C850.411 47.7813 850.55 48.7627 850.785 49.744C851.041 50.704 851.425 51.5893 851.937 52.4C852.449 53.2107 853.078 53.8613 853.825 54.352C854.571 54.8427 855.446 55.088 856.449 55.088C857.494 55.088 858.39 54.832 859.137 54.32C859.905 53.7867 860.534 53.104 861.025 52.272C861.515 51.4187 861.878 50.512 862.113 49.552C862.369 48.592 862.497 47.6747 862.497 46.8C862.497 45.8187 862.358 44.848 862.081 43.888C861.825 42.9067 861.441 42.0107 860.929 41.2C860.417 40.3893 859.787 39.7387 859.041 39.248C858.294 38.7573 857.43 38.512 856.449 38.512C855.403 38.512 854.497 38.7787 853.729 39.312C852.961 39.824 852.331 40.5067 851.841 41.36C851.35 42.192 850.977 43.088 850.721 44.048C850.486 45.008 850.369 45.9253 850.369 46.8ZM875.469 50.096V46.928H884.589V50.096H875.469ZM875.469 54.288V52.112H886.253V54.288H875.469ZM877.997 58V35.28H886.093C887.181 35.28 888.151 35.4933 889.005 35.92C889.879 36.3467 890.615 36.912 891.213 37.616C891.831 38.32 892.301 39.1093 892.621 39.984C892.962 40.8587 893.133 41.7547 893.133 42.672C893.133 43.9307 892.855 45.136 892.301 46.288C891.767 47.4187 890.989 48.336 889.965 49.04C888.962 49.744 887.725 50.096 886.253 50.096H881.613V58H877.997ZM881.613 46.928H886.061C886.893 46.928 887.554 46.7467 888.045 46.384C888.557 46 888.919 45.488 889.133 44.848C889.367 44.208 889.485 43.4827 889.485 42.672C889.485 41.84 889.346 41.104 889.069 40.464C888.813 39.824 888.407 39.3333 887.853 38.992C887.319 38.6293 886.647 38.448 885.837 38.448H881.613V46.928Z" fill="#070E18"/>
<path d="M744.724 491.24C743.732 491.24 742.844 491.072 742.06 490.736C741.276 490.384 740.596 489.904 740.02 489.296C739.46 488.688 739.028 488 738.724 487.232C738.42 486.448 738.268 485.616 738.268 484.736C738.268 483.856 738.42 483.024 738.724 482.24C739.028 481.456 739.46 480.768 740.02 480.176C740.596 479.568 741.276 479.096 742.06 478.76C742.86 478.408 743.748 478.232 744.724 478.232C745.7 478.232 746.58 478.408 747.364 478.76C748.164 479.096 748.844 479.568 749.404 480.176C749.98 480.768 750.42 481.456 750.724 482.24C751.028 483.024 751.18 483.856 751.18 484.736C751.18 485.616 751.028 486.448 750.724 487.232C750.42 488 749.98 488.688 749.404 489.296C748.844 489.904 748.164 490.384 747.364 490.736C746.58 491.072 745.7 491.24 744.724 491.24ZM740.98 484.76C740.98 485.56 741.148 486.28 741.484 486.92C741.82 487.56 742.268 488.064 742.828 488.432C743.388 488.8 744.02 488.984 744.724 488.984C745.412 488.984 746.036 488.8 746.596 488.432C747.172 488.048 747.628 487.536 747.964 486.896C748.3 486.24 748.468 485.52 748.468 484.736C748.468 483.936 748.3 483.216 747.964 482.576C747.628 481.936 747.172 481.432 746.596 481.064C746.036 480.68 745.412 480.488 744.724 480.488C744.02 480.488 743.388 480.68 742.828 481.064C742.268 481.448 741.82 481.96 741.484 482.6C741.148 483.224 740.98 483.944 740.98 484.76ZM756.498 491V480.776H752.346V478.448H763.314V480.776H759.138V491H756.498ZM776.281 491.192C775.337 491.192 774.473 491.056 773.689 490.784C772.921 490.512 772.273 490.12 771.745 489.608C771.217 489.096 770.833 488.504 770.593 487.832L772.033 486.104C772.145 486.52 772.377 486.936 772.729 487.352C773.097 487.768 773.569 488.104 774.145 488.36C774.737 488.616 775.425 488.744 776.209 488.744C776.897 488.744 777.505 488.64 778.033 488.432C778.577 488.208 779.009 487.896 779.329 487.496C779.649 487.096 779.809 486.624 779.809 486.08C779.809 485.472 779.617 484.96 779.233 484.544C778.849 484.128 778.297 483.816 777.577 483.608C776.857 483.4 775.993 483.296 774.985 483.296H774.169V481.184H774.985C776.313 481.184 777.369 480.968 778.153 480.536C778.953 480.104 779.353 479.464 779.353 478.616C779.353 478.088 779.209 477.632 778.921 477.248C778.633 476.848 778.257 476.552 777.793 476.36C777.329 476.152 776.817 476.048 776.257 476.048C775.345 476.048 774.553 476.256 773.881 476.672C773.209 477.088 772.721 477.6 772.417 478.208L770.689 476.312C771.025 475.784 771.489 475.328 772.081 474.944C772.673 474.56 773.337 474.264 774.073 474.056C774.825 473.848 775.585 473.744 776.353 473.744C777.473 473.744 778.473 473.944 779.353 474.344C780.233 474.744 780.921 475.296 781.417 476C781.913 476.688 782.161 477.472 782.161 478.352C782.161 478.992 782.025 479.568 781.753 480.08C781.497 480.592 781.121 481.024 780.625 481.376C780.145 481.712 779.569 481.96 778.897 482.12C779.617 482.248 780.249 482.52 780.793 482.936C781.353 483.352 781.777 483.864 782.065 484.472C782.369 485.08 782.521 485.744 782.521 486.464C782.521 487.456 782.233 488.304 781.657 489.008C781.097 489.712 780.345 490.256 779.401 490.64C778.457 491.008 777.417 491.192 776.281 491.192ZM786.744 478.448L789.72 482.744L789.936 483.152L790.152 482.744L793.104 478.448H795.96L791.448 484.736L796.008 491H793.152L790.152 486.728L789.936 486.344L789.72 486.728L786.72 491H783.864L788.424 484.76L783.912 478.448H786.744ZM802.717 491.12V488.768C803.117 488.768 803.477 488.672 803.797 488.48C804.117 488.272 804.397 487.936 804.637 487.472C804.877 486.992 805.069 486.328 805.213 485.48C805.357 484.632 805.453 483.552 805.501 482.24L805.669 478.448H814.621V491H811.981V480.776H807.997L807.949 482.48C807.885 484.16 807.733 485.56 807.493 486.68C807.253 487.784 806.917 488.664 806.485 489.32C806.069 489.96 805.541 490.424 804.901 490.712C804.277 490.984 803.549 491.12 802.717 491.12ZM823.475 491.24C822.499 491.24 821.611 491.072 820.811 490.736C820.027 490.384 819.347 489.912 818.771 489.32C818.195 488.712 817.747 488.024 817.427 487.256C817.123 486.472 816.971 485.64 816.971 484.76C816.971 483.576 817.243 482.496 817.787 481.52C818.331 480.528 819.091 479.736 820.067 479.144C821.043 478.536 822.187 478.232 823.499 478.232C824.811 478.232 825.939 478.536 826.883 479.144C827.843 479.736 828.587 480.52 829.115 481.496C829.643 482.472 829.907 483.52 829.907 484.64C829.907 484.832 829.899 485.016 829.883 485.192C829.867 485.352 829.851 485.488 829.835 485.6H819.779C819.827 486.336 820.027 486.984 820.379 487.544C820.747 488.088 821.211 488.52 821.771 488.84C822.331 489.144 822.931 489.296 823.571 489.296C824.275 489.296 824.939 489.12 825.563 488.768C826.203 488.416 826.635 487.952 826.859 487.376L829.115 488.024C828.843 488.632 828.427 489.184 827.867 489.68C827.323 490.16 826.675 490.544 825.923 490.832C825.171 491.104 824.355 491.24 823.475 491.24ZM819.707 483.848H827.291C827.243 483.128 827.035 482.496 826.667 481.952C826.315 481.392 825.859 480.96 825.299 480.656C824.755 480.336 824.147 480.176 823.475 480.176C822.819 480.176 822.211 480.336 821.651 480.656C821.107 480.96 820.659 481.392 820.307 481.952C819.955 482.496 819.755 483.128 819.707 483.848ZM835.037 491V480.776H830.885V478.448H841.853V480.776H837.677V491H835.037Z" fill="#0080FF"/>
<path d="M779.212 525.24C778.204 525.24 777.316 525 776.548 524.52C775.78 524.04 775.172 523.416 774.724 522.648V530.112H772.084V512.448H774.412V514.704C774.892 513.952 775.516 513.352 776.284 512.904C777.052 512.456 777.908 512.232 778.852 512.232C779.716 512.232 780.508 512.408 781.228 512.76C781.948 513.096 782.572 513.568 783.1 514.176C783.628 514.784 784.036 515.48 784.324 516.264C784.628 517.032 784.78 517.848 784.78 518.712C784.78 519.912 784.54 521.008 784.06 522C783.596 522.992 782.94 523.784 782.092 524.376C781.26 524.952 780.3 525.24 779.212 525.24ZM778.348 522.984C778.908 522.984 779.412 522.864 779.86 522.624C780.324 522.384 780.716 522.064 781.036 521.664C781.372 521.264 781.628 520.808 781.804 520.296C781.98 519.784 782.068 519.256 782.068 518.712C782.068 518.136 781.972 517.592 781.78 517.08C781.588 516.568 781.308 516.12 780.94 515.736C780.588 515.352 780.172 515.048 779.692 514.824C779.228 514.6 778.716 514.488 778.156 514.488C777.82 514.488 777.468 514.552 777.1 514.68C776.732 514.808 776.388 514.984 776.068 515.208C775.748 515.432 775.468 515.696 775.228 516C774.988 516.304 774.82 516.624 774.724 516.96V520.248C774.948 520.76 775.244 521.224 775.612 521.64C775.98 522.04 776.404 522.368 776.884 522.624C777.364 522.864 777.852 522.984 778.348 522.984ZM794.21 514.728C793.186 514.744 792.274 514.976 791.474 515.424C790.69 515.872 790.13 516.504 789.794 517.32V525H787.154V512.448H789.602V515.256C790.034 514.392 790.602 513.704 791.306 513.192C792.01 512.664 792.754 512.376 793.538 512.328C793.698 512.328 793.826 512.328 793.922 512.328C794.034 512.328 794.13 512.336 794.21 512.352V514.728ZM801.537 525.24C800.545 525.24 799.657 525.072 798.873 524.736C798.089 524.384 797.409 523.904 796.833 523.296C796.273 522.688 795.841 522 795.537 521.232C795.233 520.448 795.081 519.616 795.081 518.736C795.081 517.856 795.233 517.024 795.537 516.24C795.841 515.456 796.273 514.768 796.833 514.176C797.409 513.568 798.089 513.096 798.873 512.76C799.673 512.408 800.561 512.232 801.537 512.232C802.513 512.232 803.393 512.408 804.177 512.76C804.977 513.096 805.657 513.568 806.217 514.176C806.793 514.768 807.233 515.456 807.536 516.24C807.841 517.024 807.993 517.856 807.993 518.736C807.993 519.616 807.841 520.448 807.536 521.232C807.233 522 806.793 522.688 806.217 523.296C805.657 523.904 804.977 524.384 804.177 524.736C803.393 525.072 802.513 525.24 801.537 525.24ZM797.793 518.76C797.793 519.56 797.961 520.28 798.297 520.92C798.633 521.56 799.081 522.064 799.641 522.432C800.201 522.8 800.833 522.984 801.537 522.984C802.225 522.984 802.849 522.8 803.409 522.432C803.985 522.048 804.441 521.536 804.777 520.896C805.113 520.24 805.281 519.52 805.281 518.736C805.281 517.936 805.113 517.216 804.777 516.576C804.441 515.936 803.985 515.432 803.409 515.064C802.849 514.68 802.225 514.488 801.537 514.488C800.833 514.488 800.201 514.68 799.641 515.064C799.081 515.448 798.633 515.96 798.297 516.6C797.961 517.224 797.793 517.944 797.793 518.76Z" fill="#070E18"/>
<path d="M0.672 11.24C0.672 10.5467 0.789333 9.86933 1.024 9.208C1.26933 8.536 1.62133 7.928 2.08 7.384C2.53867 6.82933 3.104 6.392 3.776 6.072C4.448 5.74133 5.21067 5.576 6.064 5.576C7.07733 5.576 7.94133 5.81067 8.656 6.28C9.38133 6.73867 9.91467 7.33067 10.256 8.056L9.376 8.6C9.13067 8.09867 8.82133 7.704 8.448 7.416C8.07467 7.11733 7.67467 6.904 7.248 6.776C6.832 6.648 6.416 6.584 6 6.584C5.31733 6.584 4.71467 6.72267 4.192 7C3.66933 7.26667 3.22667 7.62933 2.864 8.088C2.512 8.536 2.24533 9.04267 2.064 9.608C1.88267 10.1627 1.792 10.728 1.792 11.304C1.792 11.9333 1.89867 12.536 2.112 13.112C2.32533 13.688 2.624 14.2 3.008 14.648C3.392 15.0853 3.84 15.4373 4.352 15.704C4.87467 15.96 5.44 16.088 6.048 16.088C6.47467 16.088 6.912 16.0133 7.36 15.864C7.808 15.7147 8.224 15.4853 8.608 15.176C9.00267 14.8667 9.31733 14.4667 9.552 13.976L10.48 14.456C10.2453 15.0213 9.88267 15.5013 9.392 15.896C8.90133 16.2907 8.352 16.5893 7.744 16.792C7.14667 16.9947 6.56 17.096 5.984 17.096C5.20533 17.096 4.49067 16.9307 3.84 16.6C3.18933 16.2587 2.624 15.8107 2.144 15.256C1.67467 14.6907 1.312 14.0613 1.056 13.368C0.8 12.664 0.672 11.9547 0.672 11.24ZM16.4248 17.16C15.7314 17.16 15.1074 16.9787 14.5528 16.616C14.0088 16.2533 13.5768 15.8053 13.2568 15.272V20.408H12.1688V8.664H13.1448V10.28C13.4754 9.75733 13.9181 9.336 14.4728 9.016C15.0274 8.68533 15.6194 8.52 16.2488 8.52C16.8248 8.52 17.3528 8.64267 17.8328 8.888C18.3128 9.12267 18.7288 9.44267 19.0808 9.848C19.4328 10.2533 19.7048 10.7173 19.8968 11.24C20.0994 11.752 20.2008 12.2853 20.2008 12.84C20.2008 13.6187 20.0408 14.3387 19.7208 15C19.4114 15.6507 18.9741 16.1733 18.4088 16.568C17.8434 16.9627 17.1821 17.16 16.4248 17.16ZM16.1208 16.2C16.5794 16.2 16.9901 16.1093 17.3528 15.928C17.7154 15.736 18.0248 15.48 18.2808 15.16C18.5474 14.84 18.7501 14.4827 18.8888 14.088C19.0274 13.6827 19.0968 13.2667 19.0968 12.84C19.0968 12.392 19.0168 11.9653 18.8568 11.56C18.7074 11.1547 18.4888 10.7973 18.2008 10.488C17.9128 10.1787 17.5821 9.93333 17.2088 9.752C16.8354 9.57067 16.4301 9.48 15.9928 9.48C15.7154 9.48 15.4274 9.53333 15.1288 9.64C14.8301 9.74667 14.5421 9.90133 14.2648 10.104C13.9981 10.296 13.7741 10.5147 13.5928 10.76C13.4114 11.0053 13.2994 11.2667 13.2568 11.544V14.104C13.4274 14.4987 13.6568 14.856 13.9448 15.176C14.2328 15.4853 14.5634 15.736 14.9368 15.928C15.3208 16.1093 15.7154 16.2 16.1208 16.2ZM25.6438 17.16C25.0464 17.16 24.4918 17.048 23.9798 16.824C23.4678 16.5893 23.0251 16.2747 22.6518 15.88C22.2784 15.4747 21.9851 15.0107 21.7718 14.488C21.5691 13.9653 21.4678 13.4053 21.4678 12.808C21.4678 12.0293 21.6438 11.3147 21.9958 10.664C22.3584 10.0133 22.8544 9.496 23.4838 9.112C24.1131 8.71733 24.8278 8.52 25.6278 8.52C26.4491 8.52 27.1638 8.71733 27.7718 9.112C28.3904 9.50667 28.8758 10.0293 29.2278 10.68C29.5798 11.32 29.7558 12.024 29.7558 12.792C29.7558 12.8773 29.7558 12.9627 29.7558 13.048C29.7558 13.1227 29.7504 13.1813 29.7398 13.224H22.6038C22.6571 13.8213 22.8224 14.3547 23.0998 14.824C23.3878 15.2827 23.7558 15.6507 24.2038 15.928C24.6624 16.1947 25.1584 16.328 25.6918 16.328C26.2358 16.328 26.7478 16.1893 27.2278 15.912C27.7184 15.6347 28.0598 15.272 28.2518 14.824L29.1958 15.08C29.0251 15.4747 28.7638 15.832 28.4118 16.152C28.0598 16.472 27.6438 16.7227 27.1638 16.904C26.6944 17.0747 26.1878 17.16 25.6438 17.16ZM22.5718 12.44H28.7318C28.6891 11.832 28.5238 11.2987 28.2358 10.84C27.9584 10.3813 27.5904 10.024 27.1318 9.768C26.6838 9.50133 26.1878 9.368 25.6438 9.368C25.0998 9.368 24.6038 9.50133 24.1558 9.768C23.7078 10.024 23.3398 10.3867 23.0518 10.856C22.7744 11.3147 22.6144 11.8427 22.5718 12.44ZM30.5064 18.936V16.024H30.6504C30.8957 16.024 31.1197 15.9493 31.3224 15.8C31.525 15.6507 31.7064 15.3893 31.8664 15.016C32.0264 14.6427 32.1544 14.1307 32.2504 13.48C32.3464 12.8187 32.4104 11.9867 32.4424 10.984L32.5224 8.664H37.9464V16.024H39.0664V18.936H38.0904V17H31.4664V18.936H30.5064ZM32.2984 16.024H36.8584V9.64H33.4984L33.4504 11.08C33.4184 12.072 33.349 12.904 33.2424 13.576C33.1464 14.2373 33.0184 14.7653 32.8584 15.16C32.709 15.544 32.5224 15.832 32.2984 16.024ZM40.6996 17V8.664H41.7876V12.248H46.5556V8.664H47.6436V17H46.5556V13.224H41.7876V17H40.6996ZM49.4198 17L51.8998 13.592C51.3344 13.5067 50.8758 13.2613 50.5238 12.856C50.1824 12.44 50.0118 11.8747 50.0118 11.16C50.0118 10.68 50.1238 10.2533 50.3478 9.88C50.5718 9.50667 50.8864 9.208 51.2918 8.984C51.7078 8.76 52.1931 8.648 52.7478 8.648H55.9318V17H54.8438V13.768H52.9878L50.6358 17H49.4198ZM52.7318 12.936H54.8438V9.512H52.9238C52.3691 9.512 51.9264 9.672 51.5958 9.992C51.2651 10.3013 51.0998 10.696 51.0998 11.176C51.0998 11.6667 51.2331 12.0827 51.4998 12.424C51.7771 12.7653 52.1878 12.936 52.7318 12.936ZM57.701 17L60.181 13.592C59.6157 13.5067 59.157 13.2613 58.805 12.856C58.4637 12.44 58.293 11.8747 58.293 11.16C58.293 10.68 58.405 10.2533 58.629 9.88C58.853 9.50667 59.1677 9.208 59.573 8.984C59.989 8.76 60.4743 8.648 61.029 8.648H64.213V17H63.125V13.768H61.269L58.917 17H57.701ZM61.013 12.936H63.125V9.512H61.205C60.6503 9.512 60.2077 9.672 59.877 9.992C59.5463 10.3013 59.381 10.696 59.381 11.176C59.381 11.6667 59.5143 12.0827 59.781 12.424C60.0583 12.7653 60.469 12.936 61.013 12.936ZM73.1004 17.096C72.3324 17.096 71.6764 16.952 71.1324 16.664C70.5884 16.3653 70.1724 15.9493 69.8844 15.416L70.7804 15.016C70.983 15.3893 71.2764 15.6827 71.6604 15.896C72.0444 16.0987 72.5084 16.2 73.0524 16.2C73.703 16.2 74.2204 16.0507 74.6044 15.752C74.999 15.4533 75.1964 15.0533 75.1964 14.552C75.1964 14.0933 75.0417 13.7253 74.7324 13.448C74.423 13.1707 73.9964 13.0267 73.4524 13.016H72.6044V12.264H73.5164C73.751 12.264 73.9644 12.2 74.1564 12.072C74.3484 11.944 74.4977 11.7733 74.6044 11.56C74.711 11.3467 74.7644 11.1067 74.7644 10.84C74.7644 10.424 74.615 10.088 74.3164 9.832C74.0284 9.576 73.6017 9.448 73.0364 9.448C72.567 9.448 72.1724 9.544 71.8524 9.736C71.543 9.91733 71.2924 10.1893 71.1004 10.552L70.2684 10.104C70.5137 9.61333 70.8764 9.22933 71.3564 8.952C71.847 8.67467 72.4177 8.536 73.0684 8.536C73.6017 8.536 74.0657 8.62667 74.4604 8.808C74.8657 8.97867 75.1804 9.22933 75.4044 9.56C75.639 9.88 75.7564 10.2693 75.7564 10.728C75.7564 11.1227 75.6604 11.4907 75.4684 11.832C75.2764 12.1627 75.0097 12.4133 74.6684 12.584C75.159 12.7333 75.5377 12.9947 75.8044 13.368C76.0817 13.7413 76.2204 14.1787 76.2204 14.68C76.2204 15.1813 76.087 15.6133 75.8204 15.976C75.5537 16.3387 75.1857 16.616 74.7164 16.808C74.247 17 73.7084 17.096 73.1004 17.096ZM77.3717 14.6C77.3717 14.0773 77.5211 13.6293 77.8198 13.256C78.1184 12.872 78.5291 12.5787 79.0518 12.376C79.5851 12.1627 80.1984 12.056 80.8918 12.056C81.2971 12.056 81.7184 12.088 82.1558 12.152C82.5931 12.216 82.9824 12.312 83.3238 12.44V11.736C83.3238 11.032 83.1158 10.472 82.6998 10.056C82.2838 9.64 81.7078 9.432 80.9718 9.432C80.5238 9.432 80.0811 9.51733 79.6438 9.688C79.2171 9.848 78.7691 10.088 78.2998 10.408L77.8838 9.64C78.4278 9.26667 78.9611 8.98933 79.4838 8.808C80.0064 8.616 80.5398 8.52 81.0838 8.52C82.1078 8.52 82.9184 8.81333 83.5158 9.4C84.1131 9.98667 84.4118 10.7973 84.4118 11.832V15.688C84.4118 15.8373 84.4438 15.9493 84.5078 16.024C84.5718 16.088 84.6731 16.1253 84.8118 16.136V17C84.6944 17.0107 84.5931 17.0213 84.5078 17.032C84.4224 17.0427 84.3584 17.0427 84.3158 17.032C84.0491 17.0213 83.8464 16.936 83.7078 16.776C83.5691 16.616 83.4944 16.4453 83.4838 16.264L83.4678 15.656C83.0944 16.136 82.6091 16.5093 82.0118 16.776C81.4144 17.032 80.8064 17.16 80.1878 17.16C79.6544 17.16 79.1691 17.048 78.7318 16.824C78.3051 16.5893 77.9691 16.28 77.7238 15.896C77.4891 15.5013 77.3717 15.0693 77.3717 14.6ZM82.9558 15.24C83.0731 15.0907 83.1638 14.9467 83.2278 14.808C83.2918 14.6693 83.3238 14.5467 83.3238 14.44V13.224C82.9611 13.0853 82.5824 12.9787 82.1878 12.904C81.8038 12.8293 81.4144 12.792 81.0198 12.792C80.2411 12.792 79.6118 12.9467 79.1318 13.256C78.6518 13.5653 78.4118 13.9867 78.4118 14.52C78.4118 14.8293 78.4918 15.1227 78.6518 15.4C78.8118 15.6667 79.0464 15.8907 79.3558 16.072C79.6651 16.2427 80.0278 16.328 80.4438 16.328C80.9664 16.328 81.4518 16.2267 81.8998 16.024C82.3584 15.8213 82.7104 15.56 82.9558 15.24ZM91.0185 17.16C90.3252 17.16 89.7012 16.9787 89.1465 16.616C88.6025 16.2533 88.1705 15.8053 87.8505 15.272V20.408H86.7625V8.664H87.7385V10.28C88.0692 9.75733 88.5118 9.336 89.0665 9.016C89.6212 8.68533 90.2132 8.52 90.8425 8.52C91.4185 8.52 91.9465 8.64267 92.4265 8.888C92.9065 9.12267 93.3225 9.44267 93.6745 9.848C94.0265 10.2533 94.2985 10.7173 94.4905 11.24C94.6932 11.752 94.7945 12.2853 94.7945 12.84C94.7945 13.6187 94.6345 14.3387 94.3145 15C94.0052 15.6507 93.5678 16.1733 93.0025 16.568C92.4372 16.9627 91.7758 17.16 91.0185 17.16ZM90.7145 16.2C91.1732 16.2 91.5838 16.1093 91.9465 15.928C92.3092 15.736 92.6185 15.48 92.8745 15.16C93.1412 14.84 93.3438 14.4827 93.4825 14.088C93.6212 13.6827 93.6905 13.2667 93.6905 12.84C93.6905 12.392 93.6105 11.9653 93.4505 11.56C93.3012 11.1547 93.0825 10.7973 92.7945 10.488C92.5065 10.1787 92.1758 9.93333 91.8025 9.752C91.4292 9.57067 91.0238 9.48 90.5865 9.48C90.3092 9.48 90.0212 9.53333 89.7225 9.64C89.4238 9.74667 89.1358 9.90133 88.8585 10.104C88.5918 10.296 88.3678 10.5147 88.1865 10.76C88.0052 11.0053 87.8932 11.2667 87.8505 11.544V14.104C88.0212 14.4987 88.2505 14.856 88.5385 15.176C88.8265 15.4853 89.1572 15.736 89.5305 15.928C89.9145 16.1093 90.3092 16.2 90.7145 16.2ZM96.6215 17V8.664H103.326V17H102.238V9.64H97.7095V17H96.6215ZM104.931 17.048V16.056C105.219 16.056 105.475 15.9813 105.699 15.832C105.923 15.672 106.121 15.4053 106.291 15.032C106.473 14.6587 106.617 14.1467 106.723 13.496C106.83 12.8347 106.899 11.9973 106.931 10.984L107.027 8.664H112.435V17H111.347V9.64H107.987L107.955 11.08C107.913 12.232 107.822 13.1973 107.683 13.976C107.545 14.744 107.347 15.352 107.091 15.8C106.846 16.248 106.542 16.568 106.179 16.76C105.817 16.952 105.401 17.048 104.931 17.048ZM114.169 14.6C114.169 14.0773 114.318 13.6293 114.617 13.256C114.915 12.872 115.326 12.5787 115.849 12.376C116.382 12.1627 116.995 12.056 117.689 12.056C118.094 12.056 118.515 12.088 118.953 12.152C119.39 12.216 119.779 12.312 120.121 12.44V11.736C120.121 11.032 119.913 10.472 119.497 10.056C119.081 9.64 118.505 9.432 117.769 9.432C117.321 9.432 116.878 9.51733 116.441 9.688C116.014 9.848 115.566 10.088 115.097 10.408L114.681 9.64C115.225 9.26667 115.758 8.98933 116.281 8.808C116.803 8.616 117.337 8.52 117.881 8.52C118.905 8.52 119.715 8.81333 120.313 9.4C120.91 9.98667 121.209 10.7973 121.209 11.832V15.688C121.209 15.8373 121.241 15.9493 121.305 16.024C121.369 16.088 121.47 16.1253 121.609 16.136V17C121.491 17.0107 121.39 17.0213 121.305 17.032C121.219 17.0427 121.155 17.0427 121.113 17.032C120.846 17.0213 120.643 16.936 120.505 16.776C120.366 16.616 120.291 16.4453 120.281 16.264L120.265 15.656C119.891 16.136 119.406 16.5093 118.809 16.776C118.211 17.032 117.603 17.16 116.985 17.16C116.451 17.16 115.966 17.048 115.529 16.824C115.102 16.5893 114.766 16.28 114.521 15.896C114.286 15.5013 114.169 15.0693 114.169 14.6ZM119.753 15.24C119.87 15.0907 119.961 14.9467 120.025 14.808C120.089 14.6693 120.121 14.5467 120.121 14.44V13.224C119.758 13.0853 119.379 12.9787 118.985 12.904C118.601 12.8293 118.211 12.792 117.817 12.792C117.038 12.792 116.409 12.9467 115.929 13.256C115.449 13.5653 115.209 13.9867 115.209 14.52C115.209 14.8293 115.289 15.1227 115.449 15.4C115.609 15.6667 115.843 15.8907 116.153 16.072C116.462 16.2427 116.825 16.328 117.241 16.328C117.763 16.328 118.249 16.2267 118.697 16.024C119.155 15.8213 119.507 15.56 119.753 15.24ZM125.514 17V9.64H122.538V8.664H129.578V9.64H126.602V17H125.514ZM130.34 14.6C130.34 14.0773 130.49 13.6293 130.789 13.256C131.087 12.872 131.498 12.5787 132.021 12.376C132.554 12.1627 133.167 12.056 133.861 12.056C134.266 12.056 134.687 12.088 135.125 12.152C135.562 12.216 135.951 12.312 136.293 12.44V11.736C136.293 11.032 136.085 10.472 135.669 10.056C135.253 9.64 134.677 9.432 133.941 9.432C133.493 9.432 133.05 9.51733 132.613 9.688C132.186 9.848 131.738 10.088 131.269 10.408L130.853 9.64C131.397 9.26667 131.93 8.98933 132.453 8.808C132.975 8.616 133.509 8.52 134.053 8.52C135.077 8.52 135.887 8.81333 136.485 9.4C137.082 9.98667 137.381 10.7973 137.381 11.832V15.688C137.381 15.8373 137.413 15.9493 137.477 16.024C137.541 16.088 137.642 16.1253 137.781 16.136V17C137.663 17.0107 137.562 17.0213 137.477 17.032C137.391 17.0427 137.327 17.0427 137.285 17.032C137.018 17.0213 136.815 16.936 136.677 16.776C136.538 16.616 136.463 16.4453 136.453 16.264L136.437 15.656C136.063 16.136 135.578 16.5093 134.981 16.776C134.383 17.032 133.775 17.16 133.157 17.16C132.623 17.16 132.138 17.048 131.701 16.824C131.274 16.5893 130.938 16.28 130.693 15.896C130.458 15.5013 130.34 15.0693 130.34 14.6ZM135.925 15.24C136.042 15.0907 136.133 14.9467 136.197 14.808C136.261 14.6693 136.293 14.5467 136.293 14.44V13.224C135.93 13.0853 135.551 12.9787 135.157 12.904C134.773 12.8293 134.383 12.792 133.989 12.792C133.21 12.792 132.581 12.9467 132.101 13.256C131.621 13.5653 131.381 13.9867 131.381 14.52C131.381 14.8293 131.461 15.1227 131.621 15.4C131.781 15.6667 132.015 15.8907 132.325 16.072C132.634 16.2427 132.997 16.328 133.413 16.328C133.935 16.328 134.421 16.2267 134.869 16.024C135.327 15.8213 135.679 15.56 135.925 15.24ZM1.184 39V30.664H7.888V39H6.8V31.64H2.272V39H1.184ZM13.8458 39.16C13.2484 39.16 12.6938 39.048 12.1818 38.824C11.6804 38.5893 11.2431 38.2747 10.8698 37.88C10.5071 37.4747 10.2244 37.016 10.0218 36.504C9.81908 35.9813 9.71775 35.432 9.71775 34.856C9.71775 34.2587 9.81908 33.704 10.0218 33.192C10.2244 32.6693 10.5124 32.2107 10.8858 31.816C11.2591 31.4107 11.6964 31.096 12.1978 30.872C12.7098 30.6373 13.2644 30.52 13.8618 30.52C14.4591 30.52 15.0084 30.6373 15.5098 30.872C16.0111 31.096 16.4484 31.4107 16.8218 31.816C17.1951 32.2107 17.4831 32.6693 17.6858 33.192C17.8884 33.704 17.9898 34.2587 17.9898 34.856C17.9898 35.432 17.8884 35.9813 17.6858 36.504C17.4831 37.016 17.1951 37.4747 16.8218 37.88C16.4591 38.2747 16.0218 38.5893 15.5098 38.824C15.0084 39.048 14.4538 39.16 13.8458 39.16ZM10.8218 34.872C10.8218 35.4907 10.9551 36.056 11.2218 36.568C11.4991 37.0693 11.8671 37.4693 12.3258 37.768C12.7844 38.056 13.2911 38.2 13.8458 38.2C14.4004 38.2 14.9071 38.0507 15.3658 37.752C15.8244 37.4533 16.1924 37.048 16.4698 36.536C16.7471 36.0133 16.8858 35.448 16.8858 34.84C16.8858 34.2213 16.7471 33.656 16.4698 33.144C16.1924 32.632 15.8244 32.2267 15.3658 31.928C14.9071 31.6293 14.4004 31.48 13.8458 31.48C13.2911 31.48 12.7844 31.6347 12.3258 31.944C11.8778 32.2533 11.5151 32.664 11.2378 33.176C10.9604 33.6773 10.8218 34.2427 10.8218 34.872ZM27.5035 39.16C26.8955 39.16 26.3355 39.048 25.8235 38.824C25.3222 38.5893 24.8795 38.2693 24.4955 37.864C24.1222 37.4587 23.8288 36.9947 23.6155 36.472C23.4128 35.9493 23.3115 35.3947 23.3115 34.808C23.3115 34.0187 23.4875 33.2987 23.8395 32.648C24.1915 31.9973 24.6822 31.48 25.3115 31.096C25.9408 30.712 26.6662 30.52 27.4875 30.52C28.2662 30.52 28.9542 30.7013 29.5515 31.064C30.1488 31.416 30.5915 31.896 30.8795 32.504L29.8235 32.84C29.5888 32.4133 29.2582 32.0827 28.8315 31.848C28.4155 31.6027 27.9515 31.48 27.4395 31.48C26.8848 31.48 26.3782 31.624 25.9195 31.912C25.4608 32.2 25.0928 32.5947 24.8155 33.096C24.5488 33.5973 24.4155 34.168 24.4155 34.808C24.4155 35.4373 24.5542 36.008 24.8315 36.52C25.1088 37.032 25.4768 37.4427 25.9355 37.752C26.3942 38.0507 26.9008 38.2 27.4555 38.2C27.8182 38.2 28.1648 38.136 28.4955 38.008C28.8368 37.88 29.1302 37.7093 29.3755 37.496C29.6315 37.272 29.8022 37.032 29.8875 36.776L30.9595 37.096C30.8102 37.4907 30.5595 37.848 30.2075 38.168C29.8662 38.4773 29.4608 38.7227 28.9915 38.904C28.5328 39.0747 28.0368 39.16 27.5035 39.16ZM34.7488 39V31.64H31.7728V30.664H38.8128V31.64H35.8368V39H34.7488ZM44.5498 39.16C43.8564 39.16 43.2324 38.9787 42.6778 38.616C42.1338 38.2533 41.7018 37.8053 41.3818 37.272V42.408H40.2938V30.664H41.2698V32.28C41.6004 31.7573 42.0431 31.336 42.5978 31.016C43.1524 30.6853 43.7444 30.52 44.3738 30.52C44.9498 30.52 45.4778 30.6427 45.9578 30.888C46.4378 31.1227 46.8538 31.4427 47.2058 31.848C47.5578 32.2533 47.8298 32.7173 48.0218 33.24C48.2244 33.752 48.3258 34.2853 48.3258 34.84C48.3258 35.6187 48.1658 36.3387 47.8458 37C47.5364 37.6507 47.0991 38.1733 46.5338 38.568C45.9684 38.9627 45.3071 39.16 44.5498 39.16ZM44.2458 38.2C44.7044 38.2 45.1151 38.1093 45.4778 37.928C45.8404 37.736 46.1498 37.48 46.4058 37.16C46.6724 36.84 46.8751 36.4827 47.0138 36.088C47.1524 35.6827 47.2218 35.2667 47.2218 34.84C47.2218 34.392 47.1418 33.9653 46.9818 33.56C46.8324 33.1547 46.6138 32.7973 46.3258 32.488C46.0378 32.1787 45.7071 31.9333 45.3338 31.752C44.9604 31.5707 44.5551 31.48 44.1178 31.48C43.8404 31.48 43.5524 31.5333 43.2538 31.64C42.9551 31.7467 42.6671 31.9013 42.3898 32.104C42.1231 32.296 41.8991 32.5147 41.7178 32.76C41.5364 33.0053 41.4244 33.2667 41.3818 33.544V36.104C41.5524 36.4987 41.7818 36.856 42.0698 37.176C42.3578 37.4853 42.6884 37.736 43.0618 37.928C43.4458 38.1093 43.8404 38.2 44.2458 38.2ZM49.4967 36.6C49.4967 36.0773 49.6461 35.6293 49.9448 35.256C50.2434 34.872 50.6541 34.5787 51.1768 34.376C51.7101 34.1627 52.3234 34.056 53.0168 34.056C53.4221 34.056 53.8434 34.088 54.2808 34.152C54.7181 34.216 55.1074 34.312 55.4488 34.44V33.736C55.4488 33.032 55.2408 32.472 54.8248 32.056C54.4088 31.64 53.8328 31.432 53.0968 31.432C52.6488 31.432 52.2061 31.5173 51.7688 31.688C51.3421 31.848 50.8941 32.088 50.4248 32.408L50.0088 31.64C50.5528 31.2667 51.0861 30.9893 51.6088 30.808C52.1314 30.616 52.6648 30.52 53.2088 30.52C54.2328 30.52 55.0434 30.8133 55.6408 31.4C56.2381 31.9867 56.5368 32.7973 56.5368 33.832V37.688C56.5368 37.8373 56.5688 37.9493 56.6328 38.024C56.6968 38.088 56.7981 38.1253 56.9368 38.136V39C56.8194 39.0107 56.7181 39.0213 56.6328 39.032C56.5474 39.0427 56.4834 39.0427 56.4408 39.032C56.1741 39.0213 55.9714 38.936 55.8328 38.776C55.6941 38.616 55.6194 38.4453 55.6088 38.264L55.5928 37.656C55.2194 38.136 54.7341 38.5093 54.1368 38.776C53.5394 39.032 52.9314 39.16 52.3128 39.16C51.7794 39.16 51.2941 39.048 50.8568 38.824C50.4301 38.5893 50.0941 38.28 49.8488 37.896C49.6141 37.5013 49.4967 37.0693 49.4967 36.6ZM55.0808 37.24C55.1981 37.0907 55.2888 36.9467 55.3528 36.808C55.4168 36.6693 55.4488 36.5467 55.4488 36.44V35.224C55.0861 35.0853 54.7074 34.9787 54.3128 34.904C53.9288 34.8293 53.5394 34.792 53.1448 34.792C52.3661 34.792 51.7368 34.9467 51.2568 35.256C50.7768 35.5653 50.5368 35.9867 50.5368 36.52C50.5368 36.8293 50.6168 37.1227 50.7768 37.4C50.9368 37.6667 51.1714 37.8907 51.4808 38.072C51.7901 38.2427 52.1528 38.328 52.5688 38.328C53.0914 38.328 53.5768 38.2267 54.0248 38.024C54.4834 37.8213 54.8354 37.56 55.0808 37.24ZM58.8715 39V30.664H59.9595V34.248H64.7275V30.664H65.8155V39H64.7275V35.224H59.9595V39H58.8715ZM71.8156 39.16C71.2183 39.16 70.6636 39.048 70.1516 38.824C69.6396 38.5893 69.197 38.2747 68.8236 37.88C68.4503 37.4747 68.157 37.0107 67.9436 36.488C67.741 35.9653 67.6396 35.4053 67.6396 34.808C67.6396 34.0293 67.8156 33.3147 68.1676 32.664C68.5303 32.0133 69.0263 31.496 69.6556 31.112C70.285 30.7173 70.9996 30.52 71.7996 30.52C72.621 30.52 73.3356 30.7173 73.9436 31.112C74.5623 31.5067 75.0476 32.0293 75.3996 32.68C75.7516 33.32 75.9276 34.024 75.9276 34.792C75.9276 34.8773 75.9276 34.9627 75.9276 35.048C75.9276 35.1227 75.9223 35.1813 75.9116 35.224H68.7756C68.829 35.8213 68.9943 36.3547 69.2716 36.824C69.5596 37.2827 69.9276 37.6507 70.3756 37.928C70.8343 38.1947 71.3303 38.328 71.8636 38.328C72.4076 38.328 72.9196 38.1893 73.3996 37.912C73.8903 37.6347 74.2316 37.272 74.4236 36.824L75.3676 37.08C75.197 37.4747 74.9356 37.832 74.5836 38.152C74.2316 38.472 73.8156 38.7227 73.3356 38.904C72.8663 39.0747 72.3596 39.16 71.8156 39.16ZM68.7436 34.44H74.9036C74.861 33.832 74.6956 33.2987 74.4076 32.84C74.1303 32.3813 73.7623 32.024 73.3036 31.768C72.8556 31.5013 72.3596 31.368 71.8156 31.368C71.2716 31.368 70.7756 31.5013 70.3276 31.768C69.8796 32.024 69.5116 32.3867 69.2236 32.856C68.9463 33.3147 68.7863 33.8427 68.7436 34.44ZM86.8204 38.008V39H81.5244V38.008H83.6844V28.712C83.5884 28.84 83.4444 28.984 83.2524 29.144C83.071 29.2933 82.8577 29.4427 82.6124 29.592C82.367 29.7307 82.1164 29.848 81.8604 29.944C81.6044 30.04 81.3697 30.088 81.1564 30.088V29.064C81.4444 29.064 81.7324 28.9893 82.0204 28.84C82.3084 28.68 82.575 28.504 82.8204 28.312C83.0764 28.1093 83.279 27.928 83.4284 27.768C83.5884 27.5973 83.6737 27.5067 83.6844 27.496H84.7884V38.008H86.8204ZM87.9086 39C87.898 38.328 87.9513 37.736 88.0686 37.224C88.186 36.712 88.362 36.2587 88.5966 35.864C88.842 35.4693 89.1353 35.128 89.4766 34.84C89.818 34.5413 90.202 34.28 90.6286 34.056C91.034 33.832 91.4553 33.6293 91.8926 33.448C92.33 33.256 92.7353 33.048 93.1086 32.824C93.482 32.6 93.7806 32.328 94.0046 32.008C94.2393 31.6773 94.3566 31.2667 94.3566 30.776C94.3566 30.3707 94.266 29.9973 94.0846 29.656C93.914 29.3147 93.6473 29.0427 93.2846 28.84C92.922 28.6267 92.4633 28.52 91.9086 28.52C91.3646 28.52 90.8793 28.6107 90.4526 28.792C90.0366 28.9733 89.6846 29.192 89.3966 29.448C89.1193 29.704 88.8953 29.9387 88.7246 30.152L88.0046 29.448C88.0686 29.3733 88.1966 29.2293 88.3886 29.016C88.5913 28.8027 88.858 28.5787 89.1886 28.344C89.53 28.1093 89.93 27.912 90.3886 27.752C90.858 27.5813 91.402 27.496 92.0206 27.496C92.81 27.496 93.466 27.6507 93.9886 27.96C94.5113 28.2587 94.9006 28.6533 95.1566 29.144C95.4233 29.6347 95.5566 30.1733 95.5566 30.76C95.5566 31.3253 95.4446 31.8053 95.2206 32.2C95.0073 32.584 94.7246 32.9093 94.3726 33.176C94.0313 33.432 93.658 33.656 93.2526 33.848C92.858 34.04 92.4846 34.2213 92.1326 34.392C91.45 34.7013 90.906 35.0053 90.5006 35.304C90.0953 35.6027 89.7913 35.9013 89.5886 36.2C89.3966 36.4987 89.2686 36.7973 89.2046 37.096C89.1406 37.3947 89.1033 37.6987 89.0926 38.008H95.5726V39H87.9086ZM101.91 39.16C101.142 39.1387 100.464 38.952 99.8775 38.6C99.2908 38.248 98.8002 37.7893 98.4055 37.224C98.0108 36.648 97.7122 36.0293 97.5095 35.368C97.3068 34.696 97.2055 34.04 97.2055 33.4C97.2055 32.7173 97.3122 32.0347 97.5255 31.352C97.7495 30.6693 98.0642 30.0507 98.4695 29.496C98.8855 28.9307 99.3815 28.4827 99.9575 28.152C100.534 27.8107 101.184 27.64 101.91 27.64C102.688 27.64 103.366 27.8213 103.942 28.184C104.528 28.5467 105.019 29.016 105.414 29.592C105.808 30.168 106.102 30.792 106.294 31.464C106.496 32.136 106.598 32.7813 106.598 33.4C106.598 34.0933 106.486 34.7813 106.262 35.464C106.048 36.136 105.739 36.7493 105.334 37.304C104.928 37.8587 104.432 38.3067 103.846 38.648C103.27 38.9787 102.624 39.1493 101.91 39.16ZM98.3415 33.4C98.3628 33.9547 98.4482 34.5147 98.5975 35.08C98.7575 35.6347 98.9868 36.1467 99.2855 36.616C99.5842 37.0747 99.9468 37.448 100.374 37.736C100.811 38.0133 101.323 38.152 101.91 38.152C102.507 38.152 103.03 38.0027 103.478 37.704C103.926 37.4053 104.294 37.016 104.582 36.536C104.88 36.0453 105.104 35.528 105.253 34.984C105.403 34.4293 105.477 33.9013 105.477 33.4C105.477 32.8453 105.398 32.2907 105.238 31.736C105.078 31.1707 104.843 30.6587 104.534 30.2C104.224 29.7307 103.851 29.3573 103.414 29.08C102.976 28.792 102.475 28.648 101.91 28.648C101.302 28.648 100.774 28.8027 100.326 29.112C99.8775 29.4107 99.5042 29.8 99.2055 30.28C98.9175 30.76 98.6988 31.2773 98.5495 31.832C98.4108 32.376 98.3415 32.8987 98.3415 33.4ZM116.925 39.16C116.157 39.1387 115.48 38.952 114.893 38.6C114.306 38.248 113.816 37.7893 113.421 37.224C113.026 36.648 112.728 36.0293 112.525 35.368C112.322 34.696 112.221 34.04 112.221 33.4C112.221 32.7173 112.328 32.0347 112.541 31.352C112.765 30.6693 113.08 30.0507 113.485 29.496C113.901 28.9307 114.397 28.4827 114.973 28.152C115.549 27.8107 116.2 27.64 116.925 27.64C117.704 27.64 118.381 27.8213 118.957 28.184C119.544 28.5467 120.034 29.016 120.429 29.592C120.824 30.168 121.117 30.792 121.309 31.464C121.512 32.136 121.613 32.7813 121.613 33.4C121.613 34.0933 121.501 34.7813 121.277 35.464C121.064 36.136 120.754 36.7493 120.349 37.304C119.944 37.8587 119.448 38.3067 118.861 38.648C118.285 38.9787 117.64 39.1493 116.925 39.16ZM113.357 33.4C113.378 33.9547 113.464 34.5147 113.613 35.08C113.773 35.6347 114.002 36.1467 114.301 36.616C114.6 37.0747 114.962 37.448 115.389 37.736C115.826 38.0133 116.338 38.152 116.925 38.152C117.522 38.152 118.045 38.0027 118.493 37.704C118.941 37.4053 119.309 37.016 119.597 36.536C119.896 36.0453 120.12 35.528 120.269 34.984C120.418 34.4293 120.493 33.9013 120.493 33.4C120.493 32.8453 120.413 32.2907 120.253 31.736C120.093 31.1707 119.858 30.6587 119.549 30.2C119.24 29.7307 118.866 29.3573 118.429 29.08C117.992 28.792 117.49 28.648 116.925 28.648C116.317 28.648 115.789 28.8027 115.341 29.112C114.893 29.4107 114.52 29.8 114.221 30.28C113.933 30.76 113.714 31.2773 113.565 31.832C113.426 32.376 113.357 32.8987 113.357 33.4ZM127.863 39.16C127.095 39.1387 126.417 38.952 125.831 38.6C125.244 38.248 124.753 37.7893 124.359 37.224C123.964 36.648 123.665 36.0293 123.463 35.368C123.26 34.696 123.159 34.04 123.159 33.4C123.159 32.7173 123.265 32.0347 123.479 31.352C123.703 30.6693 124.017 30.0507 124.423 29.496C124.839 28.9307 125.335 28.4827 125.911 28.152C126.487 27.8107 127.137 27.64 127.863 27.64C128.641 27.64 129.319 27.8213 129.895 28.184C130.481 28.5467 130.972 29.016 131.367 29.592C131.761 30.168 132.055 30.792 132.247 31.464C132.449 32.136 132.551 32.7813 132.551 33.4C132.551 34.0933 132.439 34.7813 132.215 35.464C132.001 36.136 131.692 36.7493 131.287 37.304C130.881 37.8587 130.385 38.3067 129.799 38.648C129.223 38.9787 128.577 39.1493 127.863 39.16ZM124.295 33.4C124.316 33.9547 124.401 34.5147 124.551 35.08C124.711 35.6347 124.94 36.1467 125.239 36.616C125.537 37.0747 125.9 37.448 126.327 37.736C126.764 38.0133 127.276 38.152 127.863 38.152C128.46 38.152 128.983 38.0027 129.431 37.704C129.879 37.4053 130.247 37.016 130.535 36.536C130.833 36.0453 131.057 35.528 131.207 34.984C131.356 34.4293 131.431 33.9013 131.431 33.4C131.431 32.8453 131.351 32.2907 131.191 31.736C131.031 31.1707 130.796 30.6587 130.487 30.2C130.177 29.7307 129.804 29.3573 129.367 29.08C128.929 28.792 128.428 28.648 127.863 28.648C127.255 28.648 126.727 28.8027 126.279 29.112C125.831 29.4107 125.457 29.8 125.159 30.28C124.871 30.76 124.652 31.2773 124.503 31.832C124.364 32.376 124.295 32.8987 124.295 33.4ZM138.8 39.16C138.032 39.1387 137.355 38.952 136.768 38.6C136.181 38.248 135.691 37.7893 135.296 37.224C134.901 36.648 134.603 36.0293 134.4 35.368C134.197 34.696 134.096 34.04 134.096 33.4C134.096 32.7173 134.203 32.0347 134.416 31.352C134.64 30.6693 134.955 30.0507 135.36 29.496C135.776 28.9307 136.272 28.4827 136.848 28.152C137.424 27.8107 138.075 27.64 138.8 27.64C139.579 27.64 140.256 27.8213 140.832 28.184C141.419 28.5467 141.909 29.016 142.304 29.592C142.699 30.168 142.992 30.792 143.184 31.464C143.387 32.136 143.488 32.7813 143.488 33.4C143.488 34.0933 143.376 34.7813 143.152 35.464C142.939 36.136 142.629 36.7493 142.224 37.304C141.819 37.8587 141.323 38.3067 140.736 38.648C140.16 38.9787 139.515 39.1493 138.8 39.16ZM135.232 33.4C135.253 33.9547 135.339 34.5147 135.488 35.08C135.648 35.6347 135.877 36.1467 136.176 36.616C136.475 37.0747 136.837 37.448 137.264 37.736C137.701 38.0133 138.213 38.152 138.8 38.152C139.397 38.152 139.92 38.0027 140.368 37.704C140.816 37.4053 141.184 37.016 141.472 36.536C141.771 36.0453 141.995 35.528 142.144 34.984C142.293 34.4293 142.368 33.9013 142.368 33.4C142.368 32.8453 142.288 32.2907 142.128 31.736C141.968 31.1707 141.733 30.6587 141.424 30.2C141.115 29.7307 140.741 29.3573 140.304 29.08C139.867 28.792 139.365 28.648 138.8 28.648C138.192 28.648 137.664 28.8027 137.216 29.112C136.768 29.4107 136.395 29.8 136.096 30.28C135.808 30.76 135.589 31.2773 135.44 31.832C135.301 32.376 135.232 32.8987 135.232 33.4ZM148.344 34.808V33.816H152.776V34.808H148.344ZM148.344 36.744V35.864H153.672V36.744H148.344ZM149.752 39V27.64H153.656C154.178 27.64 154.648 27.7413 155.064 27.944C155.48 28.1467 155.832 28.424 156.12 28.776C156.418 29.1173 156.642 29.5013 156.792 29.928C156.952 30.344 157.032 30.7707 157.032 31.208C157.032 31.8267 156.904 32.4133 156.648 32.968C156.392 33.512 156.018 33.9547 155.528 34.296C155.048 34.6373 154.461 34.808 153.768 34.808H150.872V39H149.752ZM150.872 33.816H153.704C154.226 33.816 154.648 33.6933 154.968 33.448C155.298 33.2027 155.538 32.8827 155.688 32.488C155.837 32.0933 155.912 31.6667 155.912 31.208C155.912 30.7387 155.821 30.3067 155.64 29.912C155.469 29.5173 155.208 29.208 154.856 28.984C154.514 28.7493 154.093 28.632 153.592 28.632H150.872V33.816Z" fill="#4D5F7D"/>
</svg>
