<svg width="600" height="368" viewBox="0 0 600 368" fill="none" xmlns="http://www.w3.org/2000/svg">
<mask id="path-1-inside-1_2714_3483" fill="white">
<path fill-rule="evenodd" clip-rule="evenodd" d="M20 50C8.9543 50 0 58.9543 0 70V348C0 359.046 8.95432 368 20 368H580C591.046 368 600 359.046 600 348V20C600 8.95431 591.046 0 580 0H216.178C209.469 0 203.207 3.3642 199.503 8.95841L178.259 41.0416C174.555 46.6358 168.293 50 161.583 50H20Z"/>
</mask>
<path d="M199.503 8.95841L196.167 6.75009L199.503 8.95841ZM4 348V70H-4V348H4ZM580 364H20V372H580V364ZM596 20V348H604V20H596ZM216.178 4H580V-4H216.178V4ZM196.167 6.75009L174.924 38.8333L181.594 43.2499L202.838 11.1667L196.167 6.75009ZM161.583 46H20V54H161.583V46ZM174.924 38.8333C171.961 43.3086 166.951 46 161.583 46V54C169.635 54 177.149 49.963 181.594 43.2499L174.924 38.8333ZM216.178 -4C208.127 -4 200.612 0.0370406 196.167 6.75009L202.838 11.1667C205.801 6.69136 210.811 4 216.178 4V-4ZM604 20C604 6.74516 593.255 -4 580 -4V4C588.837 4 596 11.1635 596 20H604ZM580 372C593.255 372 604 361.255 604 348H596C596 356.837 588.837 364 580 364V372ZM4 70C4 61.1634 11.1634 54 20 54V46C6.74516 46 -4 56.7452 -4 70H4ZM-4 348C-4 361.255 6.74519 372 20 372V364C11.1635 364 4 356.837 4 348H-4Z" fill="white" mask="url(#path-1-inside-1_2714_3483)"/>
</svg>
