<svg width="20" height="20" viewBox="0 0 20 20" fill="none" xmlns="http://www.w3.org/2000/svg">
<path d="M14.167 8.33337C15.5477 8.33337 16.667 7.21409 16.667 5.83337C16.667 4.45266 15.5477 3.33337 14.167 3.33337C12.7863 3.33337 11.667 4.45266 11.667 5.83337C11.667 7.21409 12.7863 8.33337 14.167 8.33337Z" stroke="#0080FF" stroke-width="0.833333" stroke-linecap="round" stroke-linejoin="round"/>
<path d="M5.83398 16.6667C7.2147 16.6667 8.33398 15.5474 8.33398 14.1667C8.33398 12.786 7.2147 11.6667 5.83398 11.6667C4.45327 11.6667 3.33398 12.786 3.33398 14.1667C3.33398 15.5474 4.45327 16.6667 5.83398 16.6667Z" stroke="#0080FF" stroke-width="0.833333" stroke-linecap="round" stroke-linejoin="round"/>
<path d="M11.6673 11.6667H16.6673V15.8334C16.6673 16.0544 16.5795 16.2663 16.4232 16.4226C16.267 16.5789 16.055 16.6667 15.834 16.6667H12.5007C12.2796 16.6667 12.0677 16.5789 11.9114 16.4226C11.7551 16.2663 11.6673 16.0544 11.6673 15.8334V11.6667ZM3.33398 3.33337H8.33398V7.50004C8.33398 7.72105 8.24619 7.93302 8.08991 8.0893C7.93363 8.24558 7.72166 8.33337 7.50065 8.33337H4.16732C3.9463 8.33337 3.73434 8.24558 3.57806 8.0893C3.42178 7.93302 3.33398 7.72105 3.33398 7.50004V3.33337Z" stroke="#0080FF" stroke-width="0.833333" stroke-linecap="round" stroke-linejoin="round"/>
</svg>
