<svg width="20" height="20" viewBox="0 0 20 20" fill="none" xmlns="http://www.w3.org/2000/svg">
<path d="M3 4.67942C3.99923 3.59622 5.75 3.66766 5.75 3.66766H9.5H13.25C13.25 3.66766 15.0008 3.59622 16 4.67942C16.9326 5.69041 17 7.20884 17 7.20884V10.75V14.2912C17 14.2912 16.9326 15.8096 16 16.8206C15.0008 17.9038 13.25 17.8324 13.25 17.8324H9.5H5.75C5.75 17.8324 3.99923 17.9038 3 16.8206C2.06738 15.8096 2 14.2912 2 14.2912V10.75V7.20884C2 7.20884 2.06738 5.69041 3 4.67942Z" stroke="#0080FF" stroke-linecap="round"/>
<path d="M6.16699 2V6.16667" stroke="#0080FF" stroke-linecap="round"/>
<path d="M12.833 2V6.16667" stroke="#0080FF" stroke-linecap="round"/>
<path d="M17 8.83331L2 8.83331" stroke="#0080FF" stroke-linecap="round"/>
</svg>
