<svg width="21" height="20" viewBox="0 0 21 20" fill="none" xmlns="http://www.w3.org/2000/svg">
<g clip-path="url(#clip0_1158_1135)">
<path fill-rule="evenodd" clip-rule="evenodd" d="M10.3333 1.6665C5.73083 1.6665 2 5.39734 2 9.99984C2 11.5748 2.4375 13.0498 3.19833 14.3065L2.455 16.8332C2.41232 16.9782 2.40951 17.1321 2.44687 17.2787C2.48423 17.4252 2.56037 17.5589 2.6673 17.6659C2.77423 17.7728 2.90798 17.8489 3.05451 17.8863C3.20104 17.9237 3.35493 17.9209 3.5 17.8782L6.02667 17.1348C7.32556 17.9207 8.81518 18.3352 10.3333 18.3332C14.9358 18.3332 18.6667 14.6023 18.6667 9.99984C18.6667 5.39734 14.9358 1.6665 10.3333 1.6665ZM8.44833 11.8857C10.1342 13.5707 11.7433 13.7932 12.3117 13.814C13.1758 13.8457 14.0175 13.1857 14.345 12.4198C14.3863 12.3246 14.4014 12.2199 14.3885 12.1169C14.3756 12.0138 14.3352 11.9161 14.2717 11.834C13.815 11.2507 13.1975 10.8315 12.5942 10.4148C12.4682 10.3277 12.3134 10.2928 12.1622 10.3173C12.0111 10.3419 11.8753 10.424 11.7833 10.5465L11.2833 11.309C11.257 11.35 11.2161 11.3794 11.1688 11.3912C11.1216 11.4029 11.0716 11.3962 11.0292 11.3723C10.69 11.1782 10.1958 10.8482 9.84083 10.4932C9.48583 10.1382 9.17583 9.6665 9.00167 9.349C8.98007 9.30867 8.97383 9.26187 8.9841 9.21728C8.99436 9.17269 9.02044 9.13334 9.0575 9.1065L9.8275 8.53484C9.93739 8.43929 10.0083 8.30667 10.0267 8.16222C10.0452 8.01778 10.0099 7.87159 9.9275 7.7515C9.55417 7.20484 9.11917 6.50984 8.48833 6.049C8.40692 5.99001 8.31155 5.95322 8.21161 5.94226C8.11167 5.9313 8.0106 5.94655 7.91833 5.9865C7.15167 6.31484 6.48833 7.1565 6.52 8.02234C6.54083 8.59067 6.76333 10.1998 8.44833 11.8857Z" fill="#7992B2"/>
</g>
<defs>
<clipPath id="clip0_1158_1135">
<rect width="20" height="20" fill="white" transform="translate(0.333984)"/>
</clipPath>
</defs>
</svg>
